<svg xmlns="http://www.w3.org/2000/svg" xmlns:v="https://svgstorm.com"
viewBox = "0 0 1024 1024"
width="1024"
height="1024">
<g fill="None" fill-opacity="0.0" stroke="#000000" stroke-opacity="0.00" stroke-width="0.3"><path d="
M 0.00 1024.00 
L 1024.00 1024.00
L 1024.00 0.00
L 0.00 0.00
L 0.00 1024.00
M 635.00 390.00 
C 648.85 393.75 650.35 407.79 650.21 420.23 C 650.07 432.67 649.68 448.10 648.00 461.00
C 647.64 463.79 647.28 466.25 647.00 469.00
C 645.45 484.05 644.36 502.48 642.02 517.02 C 639.69 531.57 640.01 551.78 637.00 565.00 C 633.99 578.23 637.38 599.63 623.00 604.00
C 620.05 604.90 618.27 605.02 615.00 604.00
C 597.34 598.49 601.00 572.23 601.00 558.00
C 601.00 554.07 601.68 550.64 602.00 547.00
C 603.36 531.49 604.10 516.29 606.00 501.00
C 606.35 498.21 606.64 495.67 607.00 493.00
C 608.56 481.34 609.35 469.58 611.00 458.00
C 611.35 455.54 611.64 453.38 612.00 451.00
C 612.43 448.17 613.46 444.09 612.00 442.00
C 612.48 444.83 610.26 446.81 609.00 449.00
C 608.78 449.36 609.00 450.00 609.00 450.00
C 608.97 450.35 608.12 450.74 608.00 451.00
C 607.95 451.50 608.00 452.00 608.00 452.00
C 607.97 452.35 607.13 452.73 607.00 453.00
C 606.12 455.34 604.91 457.92 604.00 460.00
C 598.03 473.67 593.87 488.99 589.07 503.07 C 584.28 517.16 579.15 532.74 574.69 546.69 C 570.24 560.64 560.10 576.94 543.00 571.00 C 525.90 565.06 528.16 544.12 526.00 530.00
C 525.82 528.80 525.23 528.15 525.00 527.00
C 524.33 523.64 525.00 519.44 525.00 516.00
C 525.00 515.00 525.00 514.00 525.00 513.00
C 525.00 511.34 525.06 509.66 525.00 508.00
C 524.91 505.51 524.95 504.39 525.00 502.00
C 524.69 498.61 524.00 494.07 524.00 490.00
C 524.00 489.50 524.00 488.50 524.00 488.00
C 524.00 486.01 524.11 483.98 524.00 482.00
C 523.70 476.87 523.54 471.32 523.00 466.00
C 522.82 464.21 523.98 460.64 521.00 461.00
C 519.57 473.41 515.76 486.80 514.00 499.00 C 512.24 511.20 506.86 524.05 506.02 536.02 C 505.19 547.99 497.06 561.59 498.01 573.01 C 498.96 584.43 484.72 600.63 476.25 589.75 C 467.78 578.88 479.80 564.19 479.00 552.00 C 478.19 539.80 486.53 525.55 486.00 513.00
C 486.10 510.73 487.18 506.65 488.00 502.00
C 490.33 488.77 492.03 476.39 494.00 463.00 C 495.96 449.61 499.24 438.02 500.00 424.00 C 500.75 409.98 514.48 405.50 527.00 408.00
C 529.68 408.54 532.44 408.97 535.00 410.00
C 554.07 417.67 555.01 446.58 555.00 464.00
C 555.00 465.67 555.00 467.33 555.00 469.00
C 555.43 473.08 556.00 478.25 556.00 483.00
C 556.00 484.67 556.00 486.33 556.00 488.00
C 556.33 491.10 557.00 495.23 557.00 499.00
C 557.00 500.66 556.92 502.34 557.00 504.00
C 557.19 507.67 557.67 511.20 558.00 515.00
C 558.14 516.59 557.24 519.21 559.00 520.00
C 561.25 512.34 563.76 504.06 567.00 497.00
C 567.46 495.27 567.44 493.73 568.00 492.00
C 573.86 473.80 582.44 451.98 589.78 434.78 C 597.12 417.58 604.63 394.29 625.00 390.00
C 628.74 389.21 631.22 388.98 635.00 390.00
M 843.00 592.00 
C 842.14 595.65 841.25 598.75 838.00 601.00
C 828.51 607.58 820.72 600.81 819.00 591.00
C 818.69 589.24 818.19 587.88 818.00 586.00
C 817.52 581.25 818.62 575.96 819.00 572.00
C 819.00 570.00 819.00 568.00 819.00 566.00
C 819.00 559.09 820.89 550.91 820.00 545.00
C 816.34 553.93 809.24 563.80 801.25 573.25 C 793.25 582.70 783.92 590.85 770.78 586.22 C 757.63 581.60 754.59 563.49 757.00 551.00
C 757.48 547.64 758.11 544.29 759.00 541.00
C 760.41 535.80 764.60 530.20 763.00 525.00
C 761.00 528.26 759.47 527.85 761.00 524.00
C 754.38 525.08 746.36 527.43 741.00 528.00
C 737.09 548.74 730.62 568.30 714.75 583.75 C 698.88 599.21 668.71 593.10 664.00 570.00
C 663.03 567.17 662.07 565.16 662.00 562.00
C 661.99 561.50 662.00 561.00 662.00 561.00
C 662.45 556.22 661.57 552.64 662.00 548.00
C 663.49 531.82 670.01 514.46 679.30 501.30 C 688.59 488.15 698.14 475.93 715.00 475.00 C 731.86 474.07 742.63 495.52 742.00 511.00
C 756.75 509.32 776.00 506.20 786.75 494.75 C 797.51 483.30 810.55 471.79 827.00 476.00
C 827.15 475.97 828.98 475.03 829.00 475.00
C 831.34 471.37 832.24 461.02 833.00 457.00
C 833.57 453.97 833.46 451.05 834.00 448.00
C 834.38 445.85 835.68 442.76 836.00 441.00
C 836.37 438.95 836.63 436.95 837.00 435.00
C 839.46 422.02 837.40 404.83 848.75 395.75 C 860.09 386.66 877.98 399.24 873.00 414.00 C 868.02 428.76 868.54 443.22 865.07 458.07 C 861.61 472.92 861.14 488.19 858.00 503.00 C 854.87 517.82 853.14 532.42 850.22 547.22 C 847.30 562.02 846.46 577.35 843.00 592.00
M 192.00 405.00 
C 193.67 405.00 195.33 405.00 197.00 405.00
C 199.00 405.00 201.00 404.97 203.00 405.00
C 205.99 405.04 208.29 405.54 211.00 406.00
C 212.51 406.25 213.96 406.73 215.00 407.00
C 220.53 408.42 223.27 408.97 225.00 413.00
C 230.46 425.71 213.50 424.85 203.93 425.93 C 194.36 427.00 174.95 422.94 173.02 435.02 C 171.09 447.11 168.08 457.40 166.00 469.00 C 163.93 480.60 161.47 490.81 159.07 502.07 C 156.67 513.34 155.49 524.90 153.00 536.00 C 150.52 547.10 148.87 560.04 147.00 571.00 C 145.14 581.96 145.35 593.73 138.25 602.25 C 131.15 610.76 115.83 604.98 114.22 593.78 C 112.61 582.58 113.00 566.03 113.00 554.00
C 113.00 547.42 113.82 543.09 114.00 537.00
C 115.05 502.01 120.81 468.22 125.00 434.00
C 119.12 434.40 113.48 434.97 107.00 435.00
C 101.26 435.00 96.36 436.21 91.00 435.00
C 88.74 434.49 87.05 434.26 85.00 433.00
C 80.87 430.47 80.16 427.81 81.00 424.00
C 84.54 407.90 114.00 408.45 127.00 407.00
C 129.30 406.74 131.53 406.24 134.00 406.00
C 140.03 405.42 145.76 405.00 152.00 405.00
C 154.00 405.00 156.00 405.00 158.00 405.00
C 168.67 403.97 181.40 403.87 192.00 405.00
M 461.00 431.00 
C 478.53 436.47 475.03 464.97 454.98 464.98 C 434.92 464.98 432.58 436.19 452.00 431.00
C 455.50 430.07 457.50 429.91 461.00 431.00
M 220.00 481.00 
C 226.10 492.19 215.95 506.11 214.22 518.22 C 212.50 530.34 207.38 545.96 207.00 559.00
C 206.95 560.79 205.88 562.17 207.00 564.00
C 207.80 564.75 208.80 565.63 210.00 566.00
C 231.59 545.28 233.69 512.27 254.00 492.00
C 258.18 489.21 256.35 488.94 261.00 489.00
C 280.93 489.25 278.81 503.26 275.01 518.01 C 271.20 532.76 268.05 544.15 266.00 559.00
C 265.87 559.95 266.00 561.04 266.00 562.00
C 266.00 577.25 273.32 573.77 281.25 566.25 C 289.17 558.73 291.85 555.91 297.75 547.75 C 303.66 539.59 301.70 529.04 304.33 519.33 C 306.96 509.62 307.18 499.03 309.98 488.98 C 312.77 478.92 319.47 475.63 329.08 476.92 C 338.68 478.22 344.68 488.01 340.67 497.67 C 336.66 507.33 335.02 516.72 335.00 526.00
C 340.60 512.56 349.16 496.31 364.00 491.00
C 366.85 490.21 369.83 489.52 373.00 490.00
C 385.10 491.85 387.88 501.74 390.00 512.00
C 390.16 512.79 390.82 513.17 391.00 514.00
C 391.78 517.64 390.64 522.09 390.00 525.00
C 390.00 526.00 389.97 527.00 390.00 528.00
C 390.33 540.69 385.13 552.84 387.00 566.00
C 400.06 563.80 405.40 551.40 413.77 541.77 C 422.14 532.14 422.44 514.94 425.99 502.99 C 429.54 491.05 432.07 472.72 449.07 476.93 C 466.08 481.13 458.94 497.85 456.02 511.02 C 453.11 524.20 450.36 541.08 449.00 555.00
C 448.56 560.75 448.04 565.44 449.00 571.00
C 450.17 577.77 451.79 584.57 444.00 587.00
C 439.28 588.47 436.07 587.88 432.00 586.00
C 421.13 580.97 421.52 568.79 418.00 559.00
C 408.06 570.65 401.57 583.12 384.98 586.98 C 368.38 590.83 352.85 570.00 359.00 554.00
C 359.00 553.00 359.03 552.00 359.00 551.00
C 358.83 544.62 360.39 538.33 361.00 532.00
C 361.39 527.98 361.20 523.96 362.00 520.00
C 360.06 515.19 353.51 525.02 351.75 528.75 C 349.99 532.47 346.18 539.47 344.08 544.08 C 341.97 548.68 338.89 556.00 337.00 561.00
C 336.20 563.12 334.77 565.20 334.00 567.00
C 330.43 575.37 328.16 586.61 317.33 588.33 C 306.49 590.04 297.79 581.37 299.00 570.00
C 289.13 578.72 280.28 589.91 267.00 592.00
C 262.94 592.86 259.64 592.90 256.00 592.00
C 245.29 589.35 236.21 579.83 237.00 568.00
C 237.03 567.50 237.00 567.00 237.00 567.00
C 235.43 564.88 236.12 561.78 236.00 559.00
C 234.75 559.30 234.29 560.83 233.00 561.00
C 228.59 568.83 222.54 576.72 215.00 582.00
C 213.21 583.25 211.28 584.35 209.00 585.00
C 192.82 589.64 183.31 579.29 180.00 565.00
C 179.68 563.60 179.21 562.47 179.00 561.00
C 178.31 556.09 178.28 548.06 180.00 544.00
C 180.00 543.50 180.00 542.50 180.00 542.00
C 180.00 528.54 184.12 513.48 186.98 500.98 C 189.83 488.47 191.52 472.31 208.00 474.00
C 212.72 474.48 217.55 476.51 220.00 481.00
M 903.00 547.00 
C 901.51 547.34 897.16 547.34 896.00 548.00
C 891.31 554.97 893.93 570.41 905.00 572.00
C 907.02 572.29 909.99 572.31 912.00 572.00
C 918.29 571.02 928.90 562.10 933.23 558.23 C 937.56 554.36 946.66 537.99 951.30 545.70 C 955.94 553.41 944.52 562.11 940.75 568.75 C 936.98 575.40 928.66 581.14 921.92 585.92 C 915.18 590.70 903.22 594.55 894.00 593.00 C 884.78 591.45 876.77 588.03 871.08 579.92 C 865.39 571.81 863.61 561.19 864.00 551.00
C 864.13 547.72 864.50 545.13 865.00 542.00
C 868.71 518.68 876.91 503.14 893.25 486.25 C 909.58 469.36 943.93 475.33 944.00 501.00 C 944.07 526.67 925.31 541.89 903.00 547.00
M 800.00 480.00 
C 800.74 480.74 799.18 479.18 800.00 480.00 Z"/>
</g>
<g fill="None" fill-opacity="0.0" stroke="#0E5295" stroke-opacity="0.64" stroke-width="0.3"><path d="
M 625.00 390.00 
C 628.26 389.98 633.24 391.97 637.00 392.00
C 636.92 390.74 634.94 391.44 635.00 390.00
C 631.22 388.98 628.74 389.21 625.00 390.00 Z"/>
</g>
<g fill="None" fill-opacity="0.0" stroke="#016ACF" stroke-opacity="0.97" stroke-width="0.3"><path d="
M 568.00 492.00 
C 568.07 490.38 570.06 492.25 569.07 494.08 C 568.08 495.91 566.84 497.27 567.00 497.00
C 563.76 504.06 561.25 512.34 559.00 520.00
C 557.24 519.21 558.14 516.59 558.00 515.00
C 558.15 515.33 555.38 513.99 556.00 511.00 C 556.62 508.01 556.77 506.17 557.00 504.00
C 556.92 502.34 557.00 500.66 557.00 499.00
C 556.95 498.85 556.00 499.00 556.00 499.00
C 552.83 495.94 555.68 486.32 556.00 483.00
C 556.00 478.25 555.43 473.08 555.00 469.00
C 555.00 471.67 555.00 474.33 555.00 477.00
C 553.42 473.73 553.29 467.19 555.00 464.00
C 555.01 446.58 554.07 417.67 535.00 410.00
C 536.98 410.23 533.94 412.03 531.97 411.02 C 530.00 410.02 527.94 408.37 527.00 408.00
C 514.48 405.50 500.75 409.98 500.00 424.00 C 499.24 438.02 495.96 449.61 494.00 463.00 C 492.03 476.39 490.33 488.77 488.00 502.00
C 488.15 507.05 487.56 509.06 486.00 513.00
C 486.53 525.55 478.19 539.80 479.00 552.00 C 479.80 564.19 467.78 578.88 476.25 589.75 C 484.72 600.63 498.96 584.43 498.01 573.01 C 497.06 561.59 505.19 547.99 506.02 536.02 C 506.86 524.05 512.24 511.20 514.00 499.00 C 515.76 486.80 519.57 473.41 521.00 461.00
C 523.98 460.64 522.82 464.21 523.00 466.00
C 524.76 470.69 524.57 476.11 524.00 482.00
C 524.11 483.98 524.00 486.01 524.00 488.00
C 525.14 493.45 525.73 501.16 525.00 508.00
C 525.06 509.66 525.00 511.34 525.00 513.00
C 524.87 512.51 527.66 516.62 527.00 520.00 C 526.34 523.38 526.26 527.30 526.00 530.00
C 528.16 544.12 525.90 565.06 543.00 571.00 C 560.10 576.94 570.24 560.64 574.69 546.69 C 579.15 532.74 584.28 517.16 589.07 503.07 C 593.87 488.99 598.03 473.67 604.00 460.00
C 604.49 457.54 604.41 449.82 609.00 449.00
C 610.26 446.81 612.48 444.83 612.00 442.00
C 613.46 444.09 612.43 448.17 612.00 451.00
C 612.05 452.13 612.56 453.02 613.00 455.00 C 613.44 456.99 611.18 457.45 611.00 458.00
C 609.35 469.58 608.56 481.34 607.00 493.00
C 607.08 494.35 607.14 494.77 608.00 497.00 C 608.85 499.24 606.20 500.40 606.00 501.00
C 604.10 516.29 603.36 531.49 602.00 547.00
C 602.41 551.28 601.76 554.06 601.00 558.00
C 601.00 572.23 597.34 598.49 615.00 604.00
C 615.78 604.07 622.28 604.05 623.00 604.00
C 637.38 599.63 633.99 578.23 637.00 565.00 C 640.01 551.78 639.69 531.57 642.02 517.02 C 644.36 502.48 645.45 484.05 647.00 469.00
C 646.89 467.63 646.88 467.22 646.00 465.00 C 645.13 462.77 647.82 461.57 648.00 461.00
C 649.68 448.10 650.07 432.67 650.21 420.23 C 650.35 407.79 648.85 393.75 635.00 390.00
C 634.94 391.44 636.92 390.74 637.00 392.00
C 633.24 391.97 628.26 389.98 625.00 390.00
C 604.63 394.29 597.12 417.58 589.78 434.78 C 582.44 451.98 573.86 473.80 568.00 492.00 Z"/>
</g>
<g fill="None" fill-opacity="0.0" stroke="#0169CE" stroke-opacity="0.96" stroke-width="0.3"><path d="
M 837.00 435.00 
C 836.98 436.22 837.87 437.61 837.67 439.67 C 837.47 441.73 834.80 443.28 836.00 441.00
C 835.68 442.76 834.38 445.85 834.00 448.00
C 834.05 449.48 836.05 456.14 834.00 460.00
C 832.61 459.74 833.22 457.95 833.00 457.00
C 832.24 461.02 831.34 471.37 829.00 475.00
C 829.16 475.01 820.30 479.13 817.00 477.00
C 819.43 474.87 823.82 476.53 827.00 476.00
C 810.55 471.79 797.51 483.30 786.75 494.75 C 776.00 506.20 756.75 509.32 742.00 511.00
C 742.63 495.52 731.86 474.07 715.00 475.00 C 698.14 475.93 688.59 488.15 679.30 501.30 C 670.01 514.46 663.49 531.82 662.00 548.00
C 662.21 551.54 664.60 557.50 662.00 561.00
C 662.00 561.00 661.99 561.50 662.00 562.00
C 665.55 563.64 663.68 567.49 664.00 570.00
C 668.71 593.10 698.88 599.21 714.75 583.75 C 730.62 568.30 737.09 548.74 741.00 528.00
C 746.36 527.43 754.38 525.08 761.00 524.00
C 759.47 527.85 761.00 528.26 763.00 525.00
C 764.60 530.20 760.41 535.80 759.00 541.00
C 759.30 540.42 760.29 539.31 761.00 539.00
C 759.65 542.75 760.82 549.41 757.00 551.00
C 754.59 563.49 757.63 581.60 770.78 586.22 C 783.92 590.85 793.25 582.70 801.25 573.25 C 809.24 563.80 816.34 553.93 820.00 545.00
C 820.89 550.91 819.00 559.09 819.00 566.00
C 819.76 573.82 819.33 583.30 819.00 591.00
C 820.72 600.81 828.51 607.58 838.00 601.00
C 838.02 600.98 842.82 592.43 843.00 592.00
C 846.46 577.35 847.30 562.02 850.22 547.22 C 853.14 532.42 854.87 517.82 858.00 503.00 C 861.14 488.19 861.61 472.92 865.07 458.07 C 868.54 443.22 868.02 428.76 873.00 414.00 C 877.98 399.24 860.09 386.66 848.75 395.75 C 837.40 404.83 839.46 422.02 837.00 435.00
M 792.00 562.00 
C 790.56 564.53 792.06 563.08 789.75 565.75 C 787.44 568.43 787.97 564.98 788.00 565.00
C 787.53 564.74 785.80 566.84 785.00 566.00
C 784.08 540.37 800.08 506.69 823.00 497.00
C 818.40 521.53 805.30 542.27 792.00 562.00
M 691.00 564.00 
C 690.50 562.63 689.05 562.16 689.00 559.00 C 688.95 555.84 690.54 555.39 691.00 554.00
C 693.52 537.53 699.99 518.12 712.00 507.00
C 713.70 517.20 723.57 523.47 721.01 534.01 C 718.45 544.54 714.87 552.86 710.23 562.23 C 705.59 571.60 692.57 578.66 691.00 564.00 Z"/>
</g>
<g fill="None" fill-opacity="0.0" stroke="#0F69BF" stroke-opacity="0.18" stroke-width="0.3"><path d="
M 158.00 405.00 
C 169.33 405.00 180.67 405.00 192.00 405.00
C 181.40 403.87 168.67 403.97 158.00 405.00 Z"/>
</g>
<g fill="None" fill-opacity="0.0" stroke="#016AD0" stroke-opacity="0.97" stroke-width="0.3"><path d="
M 134.00 406.00 
C 133.76 406.07 132.87 408.37 130.99 407.99 C 129.11 407.61 128.05 407.08 127.00 407.00
C 114.00 408.45 84.54 407.90 81.00 424.00
C 81.03 425.40 83.79 431.86 85.00 433.00
C 87.05 434.26 88.74 434.49 91.00 435.00
C 95.51 435.12 102.38 434.55 107.00 435.00
C 113.48 434.97 119.12 434.40 125.00 434.00
C 120.81 468.22 115.05 502.01 114.00 537.00
C 114.54 542.59 115.68 549.70 115.00 556.00
C 113.74 555.92 114.44 553.94 113.00 554.00
C 113.00 566.03 112.61 582.58 114.22 593.78 C 115.83 604.98 131.15 610.76 138.25 602.25 C 145.35 593.73 145.14 581.96 147.00 571.00 C 148.87 560.04 150.52 547.10 153.00 536.00 C 155.49 524.90 156.67 513.34 159.07 502.07 C 161.47 490.81 163.93 480.60 166.00 469.00 C 168.08 457.40 171.09 447.11 173.02 435.02 C 174.95 422.94 194.36 427.00 203.93 425.93 C 213.50 424.85 230.46 425.71 225.00 413.00
C 221.94 409.56 216.26 408.46 212.00 408.00
C 212.26 406.61 214.05 407.22 215.00 407.00
C 213.96 406.73 212.51 406.25 211.00 406.00
C 209.84 406.06 208.99 406.07 207.00 407.00 C 205.00 407.92 203.24 405.05 203.00 405.00
C 201.00 404.97 199.00 405.00 197.00 405.00
C 182.87 406.37 166.06 406.36 152.00 405.00
C 145.76 405.00 140.03 405.42 134.00 406.00 Z"/>
</g>
<g fill="None" fill-opacity="0.0" stroke="#064285" stroke-opacity="0.98" stroke-width="0.3"><path d="
M 197.00 405.00 
C 195.33 405.00 193.67 405.00 192.00 405.00
C 180.67 405.00 169.33 405.00 158.00 405.00
C 156.00 405.00 154.00 405.00 152.00 405.00
C 166.06 406.36 182.87 406.37 197.00 405.00 Z"/>
</g>
<g fill="None" fill-opacity="0.0" stroke="#0553A9" stroke-opacity="0.58" stroke-width="0.3"><path d="
M 211.00 406.00 
C 208.29 405.54 205.99 405.04 203.00 405.00
C 203.24 405.05 205.00 407.92 207.00 407.00 C 208.99 406.07 209.84 406.06 211.00 406.00 Z"/>
</g>
<g fill="None" fill-opacity="0.0" stroke="#094F9C" stroke-opacity="0.64" stroke-width="0.3"><path d="
M 127.00 407.00 
C 128.05 407.08 129.11 407.61 130.99 407.99 C 132.87 408.37 133.76 406.07 134.00 406.00
C 131.53 406.24 129.30 406.74 127.00 407.00 Z"/>
</g>
<g fill="None" fill-opacity="0.0" stroke="#0D5098" stroke-opacity="0.66" stroke-width="0.3"><path d="
M 225.00 413.00 
C 223.27 408.97 220.53 408.42 215.00 407.00
C 214.05 407.22 212.26 406.61 212.00 408.00
C 216.26 408.46 221.94 409.56 225.00 413.00 Z"/>
</g>
<g fill="None" fill-opacity="0.0" stroke="#084C95" stroke-opacity="0.71" stroke-width="0.3"><path d="
M 535.00 410.00 
C 532.44 408.97 529.68 408.54 527.00 408.00
C 527.94 408.37 530.00 410.02 531.97 411.02 C 533.94 412.03 536.98 410.23 535.00 410.00 Z"/>
</g>
<g fill="None" fill-opacity="0.0" stroke="#125499" stroke-opacity="0.55" stroke-width="0.3"><path d="
M 85.00 433.00 
C 83.79 431.86 81.03 425.40 81.00 424.00
C 80.16 427.81 80.87 430.47 85.00 433.00 Z"/>
</g>
<g fill="None" fill-opacity="0.0" stroke="#064C97" stroke-opacity="0.60" stroke-width="0.3"><path d="
M 452.00 431.00 
C 453.26 430.94 459.88 430.91 461.00 431.00
C 457.50 429.91 455.50 430.07 452.00 431.00 Z"/>
</g>
<g fill="None" fill-opacity="0.0" stroke="#0269CC" stroke-opacity="0.94" stroke-width="0.3"><path d="
M 461.00 431.00 
C 459.88 430.91 453.26 430.94 452.00 431.00
C 432.58 436.19 434.92 464.98 454.98 464.98 C 475.03 464.97 478.53 436.47 461.00 431.00 Z"/>
</g>
<g fill="None" fill-opacity="0.0" stroke="#084183" stroke-opacity="0.75" stroke-width="0.3"><path d="
M 91.00 435.00 
C 96.36 436.21 101.26 435.00 107.00 435.00
C 102.38 434.55 95.51 435.12 91.00 435.00 Z"/>
</g>
<g fill="None" fill-opacity="0.0" stroke="#084E9C" stroke-opacity="0.76" stroke-width="0.3"><path d="
M 836.00 441.00 
C 834.80 443.28 837.47 441.73 837.67 439.67 C 837.87 437.61 836.98 436.22 837.00 435.00
C 836.63 436.95 836.37 438.95 836.00 441.00 Z"/>
</g>
<g fill="None" fill-opacity="0.0" stroke="#09509D" stroke-opacity="0.78" stroke-width="0.3"><path d="
M 833.00 457.00 
C 833.22 457.95 832.61 459.74 834.00 460.00
C 836.05 456.14 834.05 449.48 834.00 448.00
C 833.46 451.05 833.57 453.97 833.00 457.00 Z"/>
</g>
<g fill="None" fill-opacity="0.0" stroke="#0755A5" stroke-opacity="0.72" stroke-width="0.3"><path d="
M 604.00 460.00 
C 604.91 457.92 606.12 455.34 607.00 453.00
C 607.13 452.65 607.88 452.26 608.00 452.00
C 608.00 452.00 607.95 451.50 608.00 451.00
C 608.03 450.65 608.88 450.26 609.00 450.00
C 609.00 450.00 608.78 449.36 609.00 449.00
C 604.41 449.82 604.49 457.54 604.00 460.00 Z"/>
</g>
<g fill="None" fill-opacity="0.0" stroke="#0080FF" stroke-opacity="0.01" stroke-width="0.3"><path d="
M 608.00 451.00 
C 608.12 450.74 608.97 450.35 609.00 450.00
C 608.88 450.26 608.03 450.65 608.00 451.00 Z"/>
</g>
<g fill="None" fill-opacity="0.0" stroke="#09509C" stroke-opacity="0.67" stroke-width="0.3"><path d="
M 611.00 458.00 
C 611.18 457.45 613.44 456.99 613.00 455.00 C 612.56 453.02 612.05 452.13 612.00 451.00
C 611.64 453.38 611.35 455.54 611.00 458.00 Z"/>
</g>
<g fill="None" fill-opacity="0.0" stroke="#0080DF" stroke-opacity="0.03" stroke-width="0.3"><path d="
M 607.00 453.00 
C 607.13 452.73 607.97 452.35 608.00 452.00
C 607.88 452.26 607.13 452.65 607.00 453.00 Z"/>
</g>
<g fill="None" fill-opacity="0.0" stroke="#004AA0" stroke-opacity="0.69" stroke-width="0.3"><path d="
M 647.00 469.00 
C 647.28 466.25 647.64 463.79 648.00 461.00
C 647.82 461.57 645.13 462.77 646.00 465.00 C 646.88 467.22 646.89 467.63 647.00 469.00 Z"/>
</g>
<g fill="None" fill-opacity="0.0" stroke="#0A3972" stroke-opacity="0.97" stroke-width="0.3"><path d="
M 555.00 469.00 
C 555.00 467.33 555.00 465.67 555.00 464.00
C 553.29 467.19 553.42 473.73 555.00 477.00
C 555.00 474.33 555.00 471.67 555.00 469.00 Z"/>
</g>
<g fill="None" fill-opacity="0.0" stroke="#0A56A6" stroke-opacity="0.66" stroke-width="0.3"><path d="
M 524.00 482.00 
C 524.57 476.11 524.76 470.69 523.00 466.00
C 523.54 471.32 523.70 476.87 524.00 482.00 Z"/>
</g>
<g fill="None" fill-opacity="0.0" stroke="#0169CF" stroke-opacity="0.96" stroke-width="0.3"><path d="
M 180.00 542.00 
C 180.69 549.12 180.12 558.04 180.00 565.00
C 183.31 579.29 192.82 589.64 209.00 585.00
C 209.29 584.85 210.28 583.09 211.23 582.23 C 212.19 581.37 215.16 581.93 215.00 582.00
C 222.54 576.72 228.59 568.83 233.00 561.00
C 233.70 559.76 235.43 556.11 237.00 556.00
C 239.75 555.81 237.09 565.87 237.00 568.00
C 236.21 579.83 245.29 589.35 256.00 592.00
C 258.36 592.06 264.69 592.03 267.00 592.00
C 280.28 589.91 289.13 578.72 299.00 570.00
C 297.79 581.37 306.49 590.04 317.33 588.33 C 328.16 586.61 330.43 575.37 334.00 567.00
C 334.55 564.29 335.38 563.49 337.00 561.00
C 338.89 556.00 341.97 548.68 344.08 544.08 C 346.18 539.47 349.99 532.47 351.75 528.75 C 353.51 525.02 360.06 515.19 362.00 520.00
C 362.19 519.04 361.84 517.97 362.00 517.00
C 363.06 520.30 364.89 532.25 361.00 532.00
C 360.39 538.33 358.83 544.62 359.00 551.00
C 359.25 549.59 360.09 546.24 361.00 545.00
C 360.11 547.47 363.03 555.71 359.00 554.00
C 352.85 570.00 368.38 590.83 384.98 586.98 C 401.57 583.12 408.06 570.65 418.00 559.00
C 421.52 568.79 421.13 580.97 432.00 586.00
C 433.49 586.33 442.20 587.15 444.00 587.00
C 451.79 584.57 450.17 577.77 449.00 571.00
C 449.17 571.40 446.24 570.03 447.00 567.00 C 447.76 563.97 447.76 562.02 447.00 559.00 C 446.24 555.98 449.12 554.66 449.00 555.00
C 450.36 541.08 453.11 524.20 456.02 511.02 C 458.94 497.85 466.08 481.13 449.07 476.93 C 432.07 472.72 429.54 491.05 425.99 502.99 C 422.44 514.94 422.14 532.14 413.77 541.77 C 405.40 551.40 400.06 563.80 387.00 566.00
C 385.13 552.84 390.33 540.69 390.00 528.00
C 389.72 523.24 389.80 516.67 390.00 512.00
C 387.88 501.74 385.10 491.85 373.00 490.00
C 373.44 490.15 374.79 491.40 375.00 492.00
C 371.50 491.38 366.68 493.27 364.00 491.00
C 349.16 496.31 340.60 512.56 335.00 526.00
C 335.02 516.72 336.66 507.33 340.67 497.67 C 344.68 488.01 338.68 478.22 329.08 476.92 C 319.47 475.63 312.77 478.92 309.98 488.98 C 307.18 499.03 306.96 509.62 304.33 519.33 C 301.70 529.04 303.66 539.59 297.75 547.75 C 291.85 555.91 289.17 558.73 281.25 566.25 C 273.32 573.77 266.00 577.25 266.00 562.00
C 265.46 564.44 264.33 567.89 265.00 571.00
C 263.83 568.25 262.29 560.12 266.00 559.00
C 268.05 544.15 271.20 532.76 275.01 518.01 C 278.81 503.26 280.93 489.25 261.00 489.00
C 260.59 489.12 254.62 491.78 254.00 492.00
C 233.69 512.27 231.59 545.28 210.00 566.00
C 208.80 565.63 207.80 564.75 207.00 564.00
C 204.80 561.92 204.53 559.02 205.00 555.00
C 206.98 555.47 204.89 558.60 207.00 559.00
C 207.38 545.96 212.50 530.34 214.22 518.22 C 215.95 506.11 226.10 492.19 220.00 481.00
C 218.56 479.18 209.18 474.32 208.00 474.00
C 191.52 472.31 189.83 488.47 186.98 500.98 C 184.12 513.48 180.00 528.54 180.00 542.00 Z"/>
</g>
<g fill="None" fill-opacity="0.0" stroke="#0455A7" stroke-opacity="0.63" stroke-width="0.3"><path d="
M 220.00 481.00 
C 217.55 476.51 212.72 474.48 208.00 474.00
C 209.18 474.32 218.56 479.18 220.00 481.00 Z"/>
</g>
<g fill="None" fill-opacity="0.0" stroke="#00428F" stroke-opacity="0.83" stroke-width="0.3"><path d="
M 827.00 476.00 
C 823.82 476.53 819.43 474.87 817.00 477.00
C 820.30 479.13 829.16 475.01 829.00 475.00
C 828.98 475.03 827.15 475.97 827.00 476.00 Z"/>
</g>
<g fill="None" fill-opacity="0.0" stroke="#0269CD" stroke-opacity="0.95" stroke-width="0.3"><path d="
M 865.00 542.00 
C 865.05 543.56 865.40 545.62 866.00 548.00 C 866.59 550.38 863.79 551.82 864.00 551.00
C 863.61 561.19 865.39 571.81 871.08 579.92 C 876.77 588.03 884.78 591.45 894.00 593.00 C 903.22 594.55 915.18 590.70 921.92 585.92 C 928.66 581.14 936.98 575.40 940.75 568.75 C 944.52 562.11 955.94 553.41 951.30 545.70 C 946.66 537.99 937.56 554.36 933.23 558.23 C 928.90 562.10 918.29 571.02 912.00 572.00
C 913.00 572.14 914.73 571.51 915.00 573.00
C 912.38 572.98 903.66 576.37 905.00 572.00
C 893.93 570.41 891.31 554.97 896.00 548.00
C 897.91 545.17 898.73 547.06 903.00 547.00
C 925.31 541.89 944.07 526.67 944.00 501.00 C 943.93 475.33 909.58 469.36 893.25 486.25 C 876.91 503.14 868.71 518.68 865.00 542.00
M 897.00 533.00 
C 897.49 526.08 903.97 514.90 906.25 509.25 C 908.53 503.60 917.87 490.17 923.74 496.26 C 929.61 502.35 921.20 514.92 917.25 520.25 C 913.29 525.58 903.75 531.99 897.00 533.00 Z"/>
</g>
<g fill="None" fill-opacity="0.0" stroke="#0080FF" stroke-opacity="0.01" stroke-width="0.3"><path d="
M 800.00 480.00 
C 799.18 479.18 800.74 480.74 800.00 480.00 Z"/>
</g>
<g fill="None" fill-opacity="0.0" stroke="#07488E" stroke-opacity="0.98" stroke-width="0.3"><path d="
M 556.00 499.00 
C 555.67 495.40 556.00 491.62 556.00 488.00
C 556.00 486.33 556.00 484.67 556.00 483.00
C 555.68 486.32 552.83 495.94 556.00 499.00 Z"/>
</g>
<g fill="None" fill-opacity="0.0" stroke="#0856A7" stroke-opacity="0.56" stroke-width="0.3"><path d="
M 254.00 492.00 
C 254.62 491.78 260.59 489.12 261.00 489.00
C 256.35 488.94 258.18 489.21 254.00 492.00 Z"/>
</g>
<g fill="None" fill-opacity="0.0" stroke="#094385" stroke-opacity="0.90" stroke-width="0.3"><path d="
M 524.00 490.00 
C 525.43 493.36 525.08 497.96 525.00 502.00
C 524.95 504.39 524.91 505.51 525.00 508.00
C 525.73 501.16 525.14 493.45 524.00 488.00
C 524.00 488.50 524.00 489.50 524.00 490.00 Z"/>
</g>
<g fill="None" fill-opacity="0.0" stroke="#0F6FC6" stroke-opacity="0.19" stroke-width="0.3"><path d="
M 556.00 499.00 
C 556.00 499.00 556.95 498.85 557.00 499.00
C 557.00 495.23 556.33 491.10 556.00 488.00
C 556.00 491.62 555.67 495.40 556.00 499.00 Z"/>
</g>
<g fill="None" fill-opacity="0.0" stroke="#0953A1" stroke-opacity="0.67" stroke-width="0.3"><path d="
M 364.00 491.00 
C 366.68 493.27 371.50 491.38 375.00 492.00
C 374.79 491.40 373.44 490.15 373.00 490.00
C 369.83 489.52 366.85 490.21 364.00 491.00 Z"/>
</g>
<g fill="None" fill-opacity="0.0" stroke="#0B70CF" stroke-opacity="0.16" stroke-width="0.3"><path d="
M 525.00 502.00 
C 525.08 497.96 525.43 493.36 524.00 490.00
C 524.00 494.07 524.69 498.61 525.00 502.00 Z"/>
</g>
<g fill="None" fill-opacity="0.0" stroke="#00499A" stroke-opacity="0.75" stroke-width="0.3"><path d="
M 568.00 492.00 
C 567.44 493.73 567.46 495.27 567.00 497.00
C 566.84 497.27 568.08 495.91 569.07 494.08 C 570.06 492.25 568.07 490.38 568.00 492.00 Z"/>
</g>
<g fill="None" fill-opacity="0.0" stroke="#07519C" stroke-opacity="0.66" stroke-width="0.3"><path d="
M 606.00 501.00 
C 606.20 500.40 608.85 499.24 608.00 497.00 C 607.14 494.77 607.08 494.35 607.00 493.00
C 606.64 495.67 606.35 498.21 606.00 501.00 Z"/>
</g>
<g fill="None" fill-opacity="0.0" stroke="#000000" stroke-opacity="0.00" stroke-width="0.3"><path d="
M 897.00 533.00 
C 903.75 531.99 913.29 525.58 917.25 520.25 C 921.20 514.92 929.61 502.35 923.74 496.26 C 917.87 490.17 908.53 503.60 906.25 509.25 C 903.97 514.90 897.49 526.08 897.00 533.00 Z"/>
</g>
<g fill="None" fill-opacity="0.0" stroke="#000000" stroke-opacity="0.00" stroke-width="0.3"><path d="
M 788.00 565.00 
C 788.74 563.83 791.14 563.01 792.00 562.00
C 805.30 542.27 818.40 521.53 823.00 497.00
C 800.08 506.69 784.08 540.37 785.00 566.00
C 785.80 566.84 787.53 564.74 788.00 565.00 Z"/>
</g>
<g fill="None" fill-opacity="0.0" stroke="#004DA2" stroke-opacity="0.58" stroke-width="0.3"><path d="
M 486.00 513.00 
C 487.56 509.06 488.15 507.05 488.00 502.00
C 487.18 506.65 486.10 510.73 486.00 513.00 Z"/>
</g>
<g fill="None" fill-opacity="0.0" stroke="#0752A1" stroke-opacity="0.69" stroke-width="0.3"><path d="
M 558.00 515.00 
C 557.67 511.20 557.19 507.67 557.00 504.00
C 556.77 506.17 556.62 508.01 556.00 511.00 C 555.38 513.99 558.15 515.33 558.00 515.00 Z"/>
</g>
<g fill="None" fill-opacity="0.0" stroke="#000000" stroke-opacity="0.00" stroke-width="0.3"><path d="
M 691.00 554.00 
C 690.44 557.66 690.29 560.21 691.00 564.00
C 692.57 578.66 705.59 571.60 710.23 562.23 C 714.87 552.86 718.45 544.54 721.01 534.01 C 723.57 523.47 713.70 517.20 712.00 507.00
C 699.99 518.12 693.52 537.53 691.00 554.00 Z"/>
</g>
<g fill="None" fill-opacity="0.0" stroke="#02428B" stroke-opacity="0.93" stroke-width="0.3"><path d="
M 390.00 528.00 
C 389.97 527.00 390.00 526.00 390.00 525.00
C 390.00 521.48 390.98 516.71 391.00 514.00
C 390.82 513.17 390.16 512.79 390.00 512.00
C 389.80 516.67 389.72 523.24 390.00 528.00 Z"/>
</g>
<g fill="None" fill-opacity="0.0" stroke="#083F80" stroke-opacity="0.86" stroke-width="0.3"><path d="
M 525.00 513.00 
C 525.00 514.00 525.00 515.00 525.00 516.00
C 525.75 519.42 524.81 524.02 525.00 527.00
C 525.23 528.15 525.82 528.80 526.00 530.00
C 526.26 527.30 526.34 523.38 527.00 520.00 C 527.66 516.62 524.87 512.51 525.00 513.00 Z"/>
</g>
<g fill="None" fill-opacity="0.0" stroke="#0470D8" stroke-opacity="0.08" stroke-width="0.3"><path d="
M 390.00 525.00 
C 390.64 522.09 391.78 517.64 391.00 514.00
C 390.98 516.71 390.00 521.48 390.00 525.00 Z"/>
</g>
<g fill="None" fill-opacity="0.0" stroke="#0871E2" stroke-opacity="0.09" stroke-width="0.3"><path d="
M 525.00 527.00 
C 524.81 524.02 525.75 519.42 525.00 516.00
C 525.00 519.44 524.33 523.64 525.00 527.00 Z"/>
</g>
<g fill="None" fill-opacity="0.0" stroke="#08509E" stroke-opacity="0.74" stroke-width="0.3"><path d="
M 362.00 520.00 
C 361.20 523.96 361.39 527.98 361.00 532.00
C 364.89 532.25 363.06 520.30 362.00 517.00
C 361.84 517.97 362.19 519.04 362.00 520.00 Z"/>
</g>
<g fill="None" fill-opacity="0.0" stroke="#064F9F" stroke-opacity="0.66" stroke-width="0.3"><path d="
M 113.00 554.00 
C 114.44 553.94 113.74 555.92 115.00 556.00
C 115.68 549.70 114.54 542.59 114.00 537.00
C 113.82 543.09 113.00 547.42 113.00 554.00 Z"/>
</g>
<g fill="None" fill-opacity="0.0" stroke="#094D94" stroke-opacity="0.73" stroke-width="0.3"><path d="
M 759.00 541.00 
C 758.11 544.29 757.48 547.64 757.00 551.00
C 760.82 549.41 759.65 542.75 761.00 539.00
C 760.29 539.31 759.30 540.42 759.00 541.00 Z"/>
</g>
<g fill="None" fill-opacity="0.0" stroke="#05428B" stroke-opacity="0.90" stroke-width="0.3"><path d="
M 180.00 544.00 
C 180.00 549.38 178.84 556.49 179.00 561.00
C 179.21 562.47 179.68 563.60 180.00 565.00
C 180.12 558.04 180.69 549.12 180.00 542.00
C 180.00 542.50 180.00 543.50 180.00 544.00 Z"/>
</g>
<g fill="None" fill-opacity="0.0" stroke="#0751A2" stroke-opacity="0.69" stroke-width="0.3"><path d="
M 864.00 551.00 
C 863.79 551.82 866.59 550.38 866.00 548.00 C 865.40 545.62 865.05 543.56 865.00 542.00
C 864.50 545.13 864.13 547.72 864.00 551.00 Z"/>
</g>
<g fill="None" fill-opacity="0.0" stroke="#0F71D0" stroke-opacity="0.13" stroke-width="0.3"><path d="
M 179.00 561.00 
C 178.84 556.49 180.00 549.38 180.00 544.00
C 178.28 548.06 178.31 556.09 179.00 561.00 Z"/>
</g>
<g fill="None" fill-opacity="0.0" stroke="#054C98" stroke-opacity="0.87" stroke-width="0.3"><path d="
M 359.00 551.00 
C 359.03 552.00 359.00 553.00 359.00 554.00
C 363.03 555.71 360.11 547.47 361.00 545.00
C 360.09 546.24 359.25 549.59 359.00 551.00 Z"/>
</g>
<g fill="None" fill-opacity="0.0" stroke="#0D549D" stroke-opacity="0.67" stroke-width="0.3"><path d="
M 896.00 548.00 
C 897.16 547.34 901.51 547.34 903.00 547.00
C 898.73 547.06 897.91 545.17 896.00 548.00 Z"/>
</g>
<g fill="None" fill-opacity="0.0" stroke="#0554A7" stroke-opacity="0.55" stroke-width="0.3"><path d="
M 601.00 558.00 
C 601.76 554.06 602.41 551.28 602.00 547.00
C 601.68 550.64 601.00 554.07 601.00 558.00 Z"/>
</g>
<g fill="None" fill-opacity="0.0" stroke="#0A3A73" stroke-opacity="0.84" stroke-width="0.3"><path d="
M 662.00 561.00 
C 664.60 557.50 662.21 551.54 662.00 548.00
C 661.57 552.64 662.45 556.22 662.00 561.00 Z"/>
</g>
<g fill="None" fill-opacity="0.0" stroke="#0250A2" stroke-opacity="0.67" stroke-width="0.3"><path d="
M 449.00 571.00 
C 448.04 565.44 448.56 560.75 449.00 555.00
C 449.12 554.66 446.24 555.98 447.00 559.00 C 447.76 562.02 447.76 563.97 447.00 567.00 C 446.24 570.03 449.17 571.40 449.00 571.00 Z"/>
</g>
<g fill="None" fill-opacity="0.0" stroke="#0552A4" stroke-opacity="0.62" stroke-width="0.3"><path d="
M 691.00 564.00 
C 690.29 560.21 690.44 557.66 691.00 554.00
C 690.54 555.39 688.95 555.84 689.00 559.00 C 689.05 562.16 690.50 562.63 691.00 564.00 Z"/>
</g>
<g fill="None" fill-opacity="0.0" stroke="#004BA3" stroke-opacity="0.71" stroke-width="0.3"><path d="
M 207.00 564.00 
C 205.88 562.17 206.95 560.79 207.00 559.00
C 204.89 558.60 206.98 555.47 205.00 555.00
C 204.53 559.02 204.80 561.92 207.00 564.00 Z"/>
</g>
<g fill="None" fill-opacity="0.0" stroke="#084689" stroke-opacity="0.97" stroke-width="0.3"><path d="
M 237.00 556.00 
C 236.04 558.95 237.00 563.87 237.00 567.00
C 237.00 567.00 237.03 567.50 237.00 568.00
C 237.09 565.87 239.75 555.81 237.00 556.00 Z"/>
</g>
<g fill="None" fill-opacity="0.0" stroke="#076FD0" stroke-opacity="0.08" stroke-width="0.3"><path d="
M 233.00 561.00 
C 234.29 560.83 234.75 559.30 236.00 559.00
C 236.12 561.78 235.43 564.88 237.00 567.00
C 237.00 563.87 236.04 558.95 237.00 556.00
C 235.43 556.11 233.70 559.76 233.00 561.00 Z"/>
</g>
<g fill="None" fill-opacity="0.0" stroke="#084C91" stroke-opacity="0.89" stroke-width="0.3"><path d="
M 266.00 562.00 
C 266.00 561.04 265.87 559.95 266.00 559.00
C 262.29 560.12 263.83 568.25 265.00 571.00
C 264.33 567.89 265.46 564.44 266.00 562.00 Z"/>
</g>
<g fill="None" fill-opacity="0.0" stroke="#0653A4" stroke-opacity="0.65" stroke-width="0.3"><path d="
M 334.00 567.00 
C 334.77 565.20 336.20 563.12 337.00 561.00
C 335.38 563.49 334.55 564.29 334.00 567.00 Z"/>
</g>
<g fill="None" fill-opacity="0.0" stroke="#064A98" stroke-opacity="0.67" stroke-width="0.3"><path d="
M 664.00 570.00 
C 663.68 567.49 665.55 563.64 662.00 562.00
C 662.07 565.16 663.03 567.17 664.00 570.00 Z"/>
</g>
<g fill="None" fill-opacity="0.0" stroke="#08498C" stroke-opacity="0.69" stroke-width="0.3"><path d="
M 788.00 565.00 
C 787.97 564.98 787.44 568.43 789.75 565.75 C 792.06 563.08 790.56 564.53 792.00 562.00
C 791.14 563.01 788.74 563.83 788.00 565.00 Z"/>
</g>
<g fill="None" fill-opacity="0.0" stroke="#094B95" stroke-opacity="0.88" stroke-width="0.3"><path d="
M 819.00 572.00 
C 819.00 576.49 817.99 582.34 818.00 586.00
C 818.19 587.88 818.69 589.24 819.00 591.00
C 819.33 583.30 819.76 573.82 819.00 566.00
C 819.00 568.00 819.00 570.00 819.00 572.00 Z"/>
</g>
<g fill="None" fill-opacity="0.0" stroke="#0D69C0" stroke-opacity="0.20" stroke-width="0.3"><path d="
M 818.00 586.00 
C 817.99 582.34 819.00 576.49 819.00 572.00
C 818.62 575.96 817.52 581.25 818.00 586.00 Z"/>
</g>
<g fill="None" fill-opacity="0.0" stroke="#0B53A0" stroke-opacity="0.71" stroke-width="0.3"><path d="
M 912.00 572.00 
C 909.99 572.31 907.02 572.29 905.00 572.00
C 903.66 576.37 912.38 572.98 915.00 573.00
C 914.73 571.51 913.00 572.14 912.00 572.00 Z"/>
</g>
<g fill="None" fill-opacity="0.0" stroke="#0552AA" stroke-opacity="0.62" stroke-width="0.3"><path d="
M 209.00 585.00 
C 211.28 584.35 213.21 583.25 215.00 582.00
C 215.16 581.93 212.19 581.37 211.23 582.23 C 210.28 583.09 209.29 584.85 209.00 585.00 Z"/>
</g>
<g fill="None" fill-opacity="0.0" stroke="#0E5398" stroke-opacity="0.60" stroke-width="0.3"><path d="
M 432.00 586.00 
C 436.07 587.88 439.28 588.47 444.00 587.00
C 442.20 587.15 433.49 586.33 432.00 586.00 Z"/>
</g>
<g fill="None" fill-opacity="0.0" stroke="#03529E" stroke-opacity="0.58" stroke-width="0.3"><path d="
M 256.00 592.00 
C 259.64 592.90 262.94 592.86 267.00 592.00
C 264.69 592.03 258.36 592.06 256.00 592.00 Z"/>
</g>
<g fill="None" fill-opacity="0.0" stroke="#0B539A" stroke-opacity="0.63" stroke-width="0.3"><path d="
M 838.00 601.00 
C 841.25 598.75 842.14 595.65 843.00 592.00
C 842.82 592.43 838.02 600.98 838.00 601.00 Z"/>
</g>
<g fill="None" fill-opacity="0.0" stroke="#0E589E" stroke-opacity="0.58" stroke-width="0.3"><path d="
M 615.00 604.00 
C 618.27 605.02 620.05 604.90 623.00 604.00
C 622.28 604.05 615.78 604.07 615.00 604.00 Z"/>
</g>
<g fill="#000000" fill-opacity="0.00" stroke="None">
<path d="
M 0.00 1024.00 
L 1024.00 1024.00
L 1024.00 0.00
L 0.00 0.00
L 0.00 1024.00
M 635.00 390.00 
C 648.85 393.75 650.35 407.79 650.21 420.23 C 650.07 432.67 649.68 448.10 648.00 461.00
C 647.64 463.79 647.28 466.25 647.00 469.00
C 645.45 484.05 644.36 502.48 642.02 517.02 C 639.69 531.57 640.01 551.78 637.00 565.00 C 633.99 578.23 637.38 599.63 623.00 604.00
C 620.05 604.90 618.27 605.02 615.00 604.00
C 597.34 598.49 601.00 572.23 601.00 558.00
C 601.00 554.07 601.68 550.64 602.00 547.00
C 603.36 531.49 604.10 516.29 606.00 501.00
C 606.35 498.21 606.64 495.67 607.00 493.00
C 608.56 481.34 609.35 469.58 611.00 458.00
C 611.35 455.54 611.64 453.38 612.00 451.00
C 612.43 448.17 613.46 444.09 612.00 442.00
C 612.48 444.83 610.26 446.81 609.00 449.00
C 608.78 449.36 609.00 450.00 609.00 450.00
C 608.97 450.35 608.12 450.74 608.00 451.00
C 607.95 451.50 608.00 452.00 608.00 452.00
C 607.97 452.35 607.13 452.73 607.00 453.00
C 606.12 455.34 604.91 457.92 604.00 460.00
C 598.03 473.67 593.87 488.99 589.07 503.07 C 584.28 517.16 579.15 532.74 574.69 546.69 C 570.24 560.64 560.10 576.94 543.00 571.00 C 525.90 565.06 528.16 544.12 526.00 530.00
C 525.82 528.80 525.23 528.15 525.00 527.00
C 524.33 523.64 525.00 519.44 525.00 516.00
C 525.00 515.00 525.00 514.00 525.00 513.00
C 525.00 511.34 525.06 509.66 525.00 508.00
C 524.91 505.51 524.95 504.39 525.00 502.00
C 524.69 498.61 524.00 494.07 524.00 490.00
C 524.00 489.50 524.00 488.50 524.00 488.00
C 524.00 486.01 524.11 483.98 524.00 482.00
C 523.70 476.87 523.54 471.32 523.00 466.00
C 522.82 464.21 523.98 460.64 521.00 461.00
C 519.57 473.41 515.76 486.80 514.00 499.00 C 512.24 511.20 506.86 524.05 506.02 536.02 C 505.19 547.99 497.06 561.59 498.01 573.01 C 498.96 584.43 484.72 600.63 476.25 589.75 C 467.78 578.88 479.80 564.19 479.00 552.00 C 478.19 539.80 486.53 525.55 486.00 513.00
C 486.10 510.73 487.18 506.65 488.00 502.00
C 490.33 488.77 492.03 476.39 494.00 463.00 C 495.96 449.61 499.24 438.02 500.00 424.00 C 500.75 409.98 514.48 405.50 527.00 408.00
C 529.68 408.54 532.44 408.97 535.00 410.00
C 554.07 417.67 555.01 446.58 555.00 464.00
C 555.00 465.67 555.00 467.33 555.00 469.00
C 555.43 473.08 556.00 478.25 556.00 483.00
C 556.00 484.67 556.00 486.33 556.00 488.00
C 556.33 491.10 557.00 495.23 557.00 499.00
C 557.00 500.66 556.92 502.34 557.00 504.00
C 557.19 507.67 557.67 511.20 558.00 515.00
C 558.14 516.59 557.24 519.21 559.00 520.00
C 561.25 512.34 563.76 504.06 567.00 497.00
C 567.46 495.27 567.44 493.73 568.00 492.00
C 573.86 473.80 582.44 451.98 589.78 434.78 C 597.12 417.58 604.63 394.29 625.00 390.00
C 628.74 389.21 631.22 388.98 635.00 390.00
M 843.00 592.00 
C 842.14 595.65 841.25 598.75 838.00 601.00
C 828.51 607.58 820.72 600.81 819.00 591.00
C 818.69 589.24 818.19 587.88 818.00 586.00
C 817.52 581.25 818.62 575.96 819.00 572.00
C 819.00 570.00 819.00 568.00 819.00 566.00
C 819.00 559.09 820.89 550.91 820.00 545.00
C 816.34 553.93 809.24 563.80 801.25 573.25 C 793.25 582.70 783.92 590.85 770.78 586.22 C 757.63 581.60 754.59 563.49 757.00 551.00
C 757.48 547.64 758.11 544.29 759.00 541.00
C 760.41 535.80 764.60 530.20 763.00 525.00
C 761.00 528.26 759.47 527.85 761.00 524.00
C 754.38 525.08 746.36 527.43 741.00 528.00
C 737.09 548.74 730.62 568.30 714.75 583.75 C 698.88 599.21 668.71 593.10 664.00 570.00
C 663.03 567.17 662.07 565.16 662.00 562.00
C 661.99 561.50 662.00 561.00 662.00 561.00
C 662.45 556.22 661.57 552.64 662.00 548.00
C 663.49 531.82 670.01 514.46 679.30 501.30 C 688.59 488.15 698.14 475.93 715.00 475.00 C 731.86 474.07 742.63 495.52 742.00 511.00
C 756.75 509.32 776.00 506.20 786.75 494.75 C 797.51 483.30 810.55 471.79 827.00 476.00
C 827.15 475.97 828.98 475.03 829.00 475.00
C 831.34 471.37 832.24 461.02 833.00 457.00
C 833.57 453.97 833.46 451.05 834.00 448.00
C 834.38 445.85 835.68 442.76 836.00 441.00
C 836.37 438.95 836.63 436.95 837.00 435.00
C 839.46 422.02 837.40 404.83 848.75 395.75 C 860.09 386.66 877.98 399.24 873.00 414.00 C 868.02 428.76 868.54 443.22 865.07 458.07 C 861.61 472.92 861.14 488.19 858.00 503.00 C 854.87 517.82 853.14 532.42 850.22 547.22 C 847.30 562.02 846.46 577.35 843.00 592.00
M 192.00 405.00 
C 193.67 405.00 195.33 405.00 197.00 405.00
C 199.00 405.00 201.00 404.97 203.00 405.00
C 205.99 405.04 208.29 405.54 211.00 406.00
C 212.51 406.25 213.96 406.73 215.00 407.00
C 220.53 408.42 223.27 408.97 225.00 413.00
C 230.46 425.71 213.50 424.85 203.93 425.93 C 194.36 427.00 174.95 422.94 173.02 435.02 C 171.09 447.11 168.08 457.40 166.00 469.00 C 163.93 480.60 161.47 490.81 159.07 502.07 C 156.67 513.34 155.49 524.90 153.00 536.00 C 150.52 547.10 148.87 560.04 147.00 571.00 C 145.14 581.96 145.35 593.73 138.25 602.25 C 131.15 610.76 115.83 604.98 114.22 593.78 C 112.61 582.58 113.00 566.03 113.00 554.00
C 113.00 547.42 113.82 543.09 114.00 537.00
C 115.05 502.01 120.81 468.22 125.00 434.00
C 119.12 434.40 113.48 434.97 107.00 435.00
C 101.26 435.00 96.36 436.21 91.00 435.00
C 88.74 434.49 87.05 434.26 85.00 433.00
C 80.87 430.47 80.16 427.81 81.00 424.00
C 84.54 407.90 114.00 408.45 127.00 407.00
C 129.30 406.74 131.53 406.24 134.00 406.00
C 140.03 405.42 145.76 405.00 152.00 405.00
C 154.00 405.00 156.00 405.00 158.00 405.00
C 168.67 403.97 181.40 403.87 192.00 405.00
M 461.00 431.00 
C 478.53 436.47 475.03 464.97 454.98 464.98 C 434.92 464.98 432.58 436.19 452.00 431.00
C 455.50 430.07 457.50 429.91 461.00 431.00
M 220.00 481.00 
C 226.10 492.19 215.95 506.11 214.22 518.22 C 212.50 530.34 207.38 545.96 207.00 559.00
C 206.95 560.79 205.88 562.17 207.00 564.00
C 207.80 564.75 208.80 565.63 210.00 566.00
C 231.59 545.28 233.69 512.27 254.00 492.00
C 258.18 489.21 256.35 488.94 261.00 489.00
C 280.93 489.25 278.81 503.26 275.01 518.01 C 271.20 532.76 268.05 544.15 266.00 559.00
C 265.87 559.95 266.00 561.04 266.00 562.00
C 266.00 577.25 273.32 573.77 281.25 566.25 C 289.17 558.73 291.85 555.91 297.75 547.75 C 303.66 539.59 301.70 529.04 304.33 519.33 C 306.96 509.62 307.18 499.03 309.98 488.98 C 312.77 478.92 319.47 475.63 329.08 476.92 C 338.68 478.22 344.68 488.01 340.67 497.67 C 336.66 507.33 335.02 516.72 335.00 526.00
C 340.60 512.56 349.16 496.31 364.00 491.00
C 366.85 490.21 369.83 489.52 373.00 490.00
C 385.10 491.85 387.88 501.74 390.00 512.00
C 390.16 512.79 390.82 513.17 391.00 514.00
C 391.78 517.64 390.64 522.09 390.00 525.00
C 390.00 526.00 389.97 527.00 390.00 528.00
C 390.33 540.69 385.13 552.84 387.00 566.00
C 400.06 563.80 405.40 551.40 413.77 541.77 C 422.14 532.14 422.44 514.94 425.99 502.99 C 429.54 491.05 432.07 472.72 449.07 476.93 C 466.08 481.13 458.94 497.85 456.02 511.02 C 453.11 524.20 450.36 541.08 449.00 555.00
C 448.56 560.75 448.04 565.44 449.00 571.00
C 450.17 577.77 451.79 584.57 444.00 587.00
C 439.28 588.47 436.07 587.88 432.00 586.00
C 421.13 580.97 421.52 568.79 418.00 559.00
C 408.06 570.65 401.57 583.12 384.98 586.98 C 368.38 590.83 352.85 570.00 359.00 554.00
C 359.00 553.00 359.03 552.00 359.00 551.00
C 358.83 544.62 360.39 538.33 361.00 532.00
C 361.39 527.98 361.20 523.96 362.00 520.00
C 360.06 515.19 353.51 525.02 351.75 528.75 C 349.99 532.47 346.18 539.47 344.08 544.08 C 341.97 548.68 338.89 556.00 337.00 561.00
C 336.20 563.12 334.77 565.20 334.00 567.00
C 330.43 575.37 328.16 586.61 317.33 588.33 C 306.49 590.04 297.79 581.37 299.00 570.00
C 289.13 578.72 280.28 589.91 267.00 592.00
C 262.94 592.86 259.64 592.90 256.00 592.00
C 245.29 589.35 236.21 579.83 237.00 568.00
C 237.03 567.50 237.00 567.00 237.00 567.00
C 235.43 564.88 236.12 561.78 236.00 559.00
C 234.75 559.30 234.29 560.83 233.00 561.00
C 228.59 568.83 222.54 576.72 215.00 582.00
C 213.21 583.25 211.28 584.35 209.00 585.00
C 192.82 589.64 183.31 579.29 180.00 565.00
C 179.68 563.60 179.21 562.47 179.00 561.00
C 178.31 556.09 178.28 548.06 180.00 544.00
C 180.00 543.50 180.00 542.50 180.00 542.00
C 180.00 528.54 184.12 513.48 186.98 500.98 C 189.83 488.47 191.52 472.31 208.00 474.00
C 212.72 474.48 217.55 476.51 220.00 481.00
M 903.00 547.00 
C 901.51 547.34 897.16 547.34 896.00 548.00
C 891.31 554.97 893.93 570.41 905.00 572.00
C 907.02 572.29 909.99 572.31 912.00 572.00
C 918.29 571.02 928.90 562.10 933.23 558.23 C 937.56 554.36 946.66 537.99 951.30 545.70 C 955.94 553.41 944.52 562.11 940.75 568.75 C 936.98 575.40 928.66 581.14 921.92 585.92 C 915.18 590.70 903.22 594.55 894.00 593.00 C 884.78 591.45 876.77 588.03 871.08 579.92 C 865.39 571.81 863.61 561.19 864.00 551.00
C 864.13 547.72 864.50 545.13 865.00 542.00
C 868.71 518.68 876.91 503.14 893.25 486.25 C 909.58 469.36 943.93 475.33 944.00 501.00 C 944.07 526.67 925.31 541.89 903.00 547.00
M 800.00 480.00 
C 800.74 480.74 799.18 479.18 800.00 480.00 Z"/>
</g>
<g fill="#0E5295" fill-opacity="0.64" stroke="None">
<path d="
M 625.00 390.00 
C 628.26 389.98 633.24 391.97 637.00 392.00
C 636.92 390.74 634.94 391.44 635.00 390.00
C 631.22 388.98 628.74 389.21 625.00 390.00 Z"/>
</g>
<g fill="#016ACF" fill-opacity="0.97" stroke="None">
<path d="
M 568.00 492.00 
C 568.07 490.38 570.06 492.25 569.07 494.08 C 568.08 495.91 566.84 497.27 567.00 497.00
C 563.76 504.06 561.25 512.34 559.00 520.00
C 557.24 519.21 558.14 516.59 558.00 515.00
C 558.15 515.33 555.38 513.99 556.00 511.00 C 556.62 508.01 556.77 506.17 557.00 504.00
C 556.92 502.34 557.00 500.66 557.00 499.00
C 556.95 498.85 556.00 499.00 556.00 499.00
C 552.83 495.94 555.68 486.32 556.00 483.00
C 556.00 478.25 555.43 473.08 555.00 469.00
C 555.00 471.67 555.00 474.33 555.00 477.00
C 553.42 473.73 553.29 467.19 555.00 464.00
C 555.01 446.58 554.07 417.67 535.00 410.00
C 536.98 410.23 533.94 412.03 531.97 411.02 C 530.00 410.02 527.94 408.37 527.00 408.00
C 514.48 405.50 500.75 409.98 500.00 424.00 C 499.24 438.02 495.96 449.61 494.00 463.00 C 492.03 476.39 490.33 488.77 488.00 502.00
C 488.15 507.05 487.56 509.06 486.00 513.00
C 486.53 525.55 478.19 539.80 479.00 552.00 C 479.80 564.19 467.78 578.88 476.25 589.75 C 484.72 600.63 498.96 584.43 498.01 573.01 C 497.06 561.59 505.19 547.99 506.02 536.02 C 506.86 524.05 512.24 511.20 514.00 499.00 C 515.76 486.80 519.57 473.41 521.00 461.00
C 523.98 460.64 522.82 464.21 523.00 466.00
C 524.76 470.69 524.57 476.11 524.00 482.00
C 524.11 483.98 524.00 486.01 524.00 488.00
C 525.14 493.45 525.73 501.16 525.00 508.00
C 525.06 509.66 525.00 511.34 525.00 513.00
C 524.87 512.51 527.66 516.62 527.00 520.00 C 526.34 523.38 526.26 527.30 526.00 530.00
C 528.16 544.12 525.90 565.06 543.00 571.00 C 560.10 576.94 570.24 560.64 574.69 546.69 C 579.15 532.74 584.28 517.16 589.07 503.07 C 593.87 488.99 598.03 473.67 604.00 460.00
C 604.49 457.54 604.41 449.82 609.00 449.00
C 610.26 446.81 612.48 444.83 612.00 442.00
C 613.46 444.09 612.43 448.17 612.00 451.00
C 612.05 452.13 612.56 453.02 613.00 455.00 C 613.44 456.99 611.18 457.45 611.00 458.00
C 609.35 469.58 608.56 481.34 607.00 493.00
C 607.08 494.35 607.14 494.77 608.00 497.00 C 608.85 499.24 606.20 500.40 606.00 501.00
C 604.10 516.29 603.36 531.49 602.00 547.00
C 602.41 551.28 601.76 554.06 601.00 558.00
C 601.00 572.23 597.34 598.49 615.00 604.00
C 615.78 604.07 622.28 604.05 623.00 604.00
C 637.38 599.63 633.99 578.23 637.00 565.00 C 640.01 551.78 639.69 531.57 642.02 517.02 C 644.36 502.48 645.45 484.05 647.00 469.00
C 646.89 467.63 646.88 467.22 646.00 465.00 C 645.13 462.77 647.82 461.57 648.00 461.00
C 649.68 448.10 650.07 432.67 650.21 420.23 C 650.35 407.79 648.85 393.75 635.00 390.00
C 634.94 391.44 636.92 390.74 637.00 392.00
C 633.24 391.97 628.26 389.98 625.00 390.00
C 604.63 394.29 597.12 417.58 589.78 434.78 C 582.44 451.98 573.86 473.80 568.00 492.00 Z"/>
</g>
<g fill="#0169CE" fill-opacity="0.96" stroke="None">
<path d="
M 837.00 435.00 
C 836.98 436.22 837.87 437.61 837.67 439.67 C 837.47 441.73 834.80 443.28 836.00 441.00
C 835.68 442.76 834.38 445.85 834.00 448.00
C 834.05 449.48 836.05 456.14 834.00 460.00
C 832.61 459.74 833.22 457.95 833.00 457.00
C 832.24 461.02 831.34 471.37 829.00 475.00
C 829.16 475.01 820.30 479.13 817.00 477.00
C 819.43 474.87 823.82 476.53 827.00 476.00
C 810.55 471.79 797.51 483.30 786.75 494.75 C 776.00 506.20 756.75 509.32 742.00 511.00
C 742.63 495.52 731.86 474.07 715.00 475.00 C 698.14 475.93 688.59 488.15 679.30 501.30 C 670.01 514.46 663.49 531.82 662.00 548.00
C 662.21 551.54 664.60 557.50 662.00 561.00
C 662.00 561.00 661.99 561.50 662.00 562.00
C 665.55 563.64 663.68 567.49 664.00 570.00
C 668.71 593.10 698.88 599.21 714.75 583.75 C 730.62 568.30 737.09 548.74 741.00 528.00
C 746.36 527.43 754.38 525.08 761.00 524.00
C 759.47 527.85 761.00 528.26 763.00 525.00
C 764.60 530.20 760.41 535.80 759.00 541.00
C 759.30 540.42 760.29 539.31 761.00 539.00
C 759.65 542.75 760.82 549.41 757.00 551.00
C 754.59 563.49 757.63 581.60 770.78 586.22 C 783.92 590.85 793.25 582.70 801.25 573.25 C 809.24 563.80 816.34 553.93 820.00 545.00
C 820.89 550.91 819.00 559.09 819.00 566.00
C 819.76 573.82 819.33 583.30 819.00 591.00
C 820.72 600.81 828.51 607.58 838.00 601.00
C 838.02 600.98 842.82 592.43 843.00 592.00
C 846.46 577.35 847.30 562.02 850.22 547.22 C 853.14 532.42 854.87 517.82 858.00 503.00 C 861.14 488.19 861.61 472.92 865.07 458.07 C 868.54 443.22 868.02 428.76 873.00 414.00 C 877.98 399.24 860.09 386.66 848.75 395.75 C 837.40 404.83 839.46 422.02 837.00 435.00
M 792.00 562.00 
C 790.56 564.53 792.06 563.08 789.75 565.75 C 787.44 568.43 787.97 564.98 788.00 565.00
C 787.53 564.74 785.80 566.84 785.00 566.00
C 784.08 540.37 800.08 506.69 823.00 497.00
C 818.40 521.53 805.30 542.27 792.00 562.00
M 691.00 564.00 
C 690.50 562.63 689.05 562.16 689.00 559.00 C 688.95 555.84 690.54 555.39 691.00 554.00
C 693.52 537.53 699.99 518.12 712.00 507.00
C 713.70 517.20 723.57 523.47 721.01 534.01 C 718.45 544.54 714.87 552.86 710.23 562.23 C 705.59 571.60 692.57 578.66 691.00 564.00 Z"/>
</g>
<g fill="#0F69BF" fill-opacity="0.18" stroke="None">
<path d="
M 158.00 405.00 
C 169.33 405.00 180.67 405.00 192.00 405.00
C 181.40 403.87 168.67 403.97 158.00 405.00 Z"/>
</g>
<g fill="#016AD0" fill-opacity="0.97" stroke="None">
<path d="
M 134.00 406.00 
C 133.76 406.07 132.87 408.37 130.99 407.99 C 129.11 407.61 128.05 407.08 127.00 407.00
C 114.00 408.45 84.54 407.90 81.00 424.00
C 81.03 425.40 83.79 431.86 85.00 433.00
C 87.05 434.26 88.74 434.49 91.00 435.00
C 95.51 435.12 102.38 434.55 107.00 435.00
C 113.48 434.97 119.12 434.40 125.00 434.00
C 120.81 468.22 115.05 502.01 114.00 537.00
C 114.54 542.59 115.68 549.70 115.00 556.00
C 113.74 555.92 114.44 553.94 113.00 554.00
C 113.00 566.03 112.61 582.58 114.22 593.78 C 115.83 604.98 131.15 610.76 138.25 602.25 C 145.35 593.73 145.14 581.96 147.00 571.00 C 148.87 560.04 150.52 547.10 153.00 536.00 C 155.49 524.90 156.67 513.34 159.07 502.07 C 161.47 490.81 163.93 480.60 166.00 469.00 C 168.08 457.40 171.09 447.11 173.02 435.02 C 174.95 422.94 194.36 427.00 203.93 425.93 C 213.50 424.85 230.46 425.71 225.00 413.00
C 221.94 409.56 216.26 408.46 212.00 408.00
C 212.26 406.61 214.05 407.22 215.00 407.00
C 213.96 406.73 212.51 406.25 211.00 406.00
C 209.84 406.06 208.99 406.07 207.00 407.00 C 205.00 407.92 203.24 405.05 203.00 405.00
C 201.00 404.97 199.00 405.00 197.00 405.00
C 182.87 406.37 166.06 406.36 152.00 405.00
C 145.76 405.00 140.03 405.42 134.00 406.00 Z"/>
</g>
<g fill="#064285" fill-opacity="0.98" stroke="None">
<path d="
M 197.00 405.00 
C 195.33 405.00 193.67 405.00 192.00 405.00
C 180.67 405.00 169.33 405.00 158.00 405.00
C 156.00 405.00 154.00 405.00 152.00 405.00
C 166.06 406.36 182.87 406.37 197.00 405.00 Z"/>
</g>
<g fill="#0553A9" fill-opacity="0.58" stroke="None">
<path d="
M 211.00 406.00 
C 208.29 405.54 205.99 405.04 203.00 405.00
C 203.24 405.05 205.00 407.92 207.00 407.00 C 208.99 406.07 209.84 406.06 211.00 406.00 Z"/>
</g>
<g fill="#094F9C" fill-opacity="0.64" stroke="None">
<path d="
M 127.00 407.00 
C 128.05 407.08 129.11 407.61 130.99 407.99 C 132.87 408.37 133.76 406.07 134.00 406.00
C 131.53 406.24 129.30 406.74 127.00 407.00 Z"/>
</g>
<g fill="#0D5098" fill-opacity="0.66" stroke="None">
<path d="
M 225.00 413.00 
C 223.27 408.97 220.53 408.42 215.00 407.00
C 214.05 407.22 212.26 406.61 212.00 408.00
C 216.26 408.46 221.94 409.56 225.00 413.00 Z"/>
</g>
<g fill="#084C95" fill-opacity="0.71" stroke="None">
<path d="
M 535.00 410.00 
C 532.44 408.97 529.68 408.54 527.00 408.00
C 527.94 408.37 530.00 410.02 531.97 411.02 C 533.94 412.03 536.98 410.23 535.00 410.00 Z"/>
</g>
<g fill="#125499" fill-opacity="0.55" stroke="None">
<path d="
M 85.00 433.00 
C 83.79 431.86 81.03 425.40 81.00 424.00
C 80.16 427.81 80.87 430.47 85.00 433.00 Z"/>
</g>
<g fill="#064C97" fill-opacity="0.60" stroke="None">
<path d="
M 452.00 431.00 
C 453.26 430.94 459.88 430.91 461.00 431.00
C 457.50 429.91 455.50 430.07 452.00 431.00 Z"/>
</g>
<g fill="#0269CC" fill-opacity="0.94" stroke="None">
<path d="
M 461.00 431.00 
C 459.88 430.91 453.26 430.94 452.00 431.00
C 432.58 436.19 434.92 464.98 454.98 464.98 C 475.03 464.97 478.53 436.47 461.00 431.00 Z"/>
</g>
<g fill="#084183" fill-opacity="0.75" stroke="None">
<path d="
M 91.00 435.00 
C 96.36 436.21 101.26 435.00 107.00 435.00
C 102.38 434.55 95.51 435.12 91.00 435.00 Z"/>
</g>
<g fill="#084E9C" fill-opacity="0.76" stroke="None">
<path d="
M 836.00 441.00 
C 834.80 443.28 837.47 441.73 837.67 439.67 C 837.87 437.61 836.98 436.22 837.00 435.00
C 836.63 436.95 836.37 438.95 836.00 441.00 Z"/>
</g>
<g fill="#09509D" fill-opacity="0.78" stroke="None">
<path d="
M 833.00 457.00 
C 833.22 457.95 832.61 459.74 834.00 460.00
C 836.05 456.14 834.05 449.48 834.00 448.00
C 833.46 451.05 833.57 453.97 833.00 457.00 Z"/>
</g>
<g fill="#0755A5" fill-opacity="0.72" stroke="None">
<path d="
M 604.00 460.00 
C 604.91 457.92 606.12 455.34 607.00 453.00
C 607.13 452.65 607.88 452.26 608.00 452.00
C 608.00 452.00 607.95 451.50 608.00 451.00
C 608.03 450.65 608.88 450.26 609.00 450.00
C 609.00 450.00 608.78 449.36 609.00 449.00
C 604.41 449.82 604.49 457.54 604.00 460.00 Z"/>
</g>
<g fill="#0080FF" fill-opacity="0.01" stroke="None">
<path d="
M 608.00 451.00 
C 608.12 450.74 608.97 450.35 609.00 450.00
C 608.88 450.26 608.03 450.65 608.00 451.00 Z"/>
</g>
<g fill="#09509C" fill-opacity="0.67" stroke="None">
<path d="
M 611.00 458.00 
C 611.18 457.45 613.44 456.99 613.00 455.00 C 612.56 453.02 612.05 452.13 612.00 451.00
C 611.64 453.38 611.35 455.54 611.00 458.00 Z"/>
</g>
<g fill="#0080DF" fill-opacity="0.03" stroke="None">
<path d="
M 607.00 453.00 
C 607.13 452.73 607.97 452.35 608.00 452.00
C 607.88 452.26 607.13 452.65 607.00 453.00 Z"/>
</g>
<g fill="#004AA0" fill-opacity="0.69" stroke="None">
<path d="
M 647.00 469.00 
C 647.28 466.25 647.64 463.79 648.00 461.00
C 647.82 461.57 645.13 462.77 646.00 465.00 C 646.88 467.22 646.89 467.63 647.00 469.00 Z"/>
</g>
<g fill="#0A3972" fill-opacity="0.97" stroke="None">
<path d="
M 555.00 469.00 
C 555.00 467.33 555.00 465.67 555.00 464.00
C 553.29 467.19 553.42 473.73 555.00 477.00
C 555.00 474.33 555.00 471.67 555.00 469.00 Z"/>
</g>
<g fill="#0A56A6" fill-opacity="0.66" stroke="None">
<path d="
M 524.00 482.00 
C 524.57 476.11 524.76 470.69 523.00 466.00
C 523.54 471.32 523.70 476.87 524.00 482.00 Z"/>
</g>
<g fill="#0169CF" fill-opacity="0.96" stroke="None">
<path d="
M 180.00 542.00 
C 180.69 549.12 180.12 558.04 180.00 565.00
C 183.31 579.29 192.82 589.64 209.00 585.00
C 209.29 584.85 210.28 583.09 211.23 582.23 C 212.19 581.37 215.16 581.93 215.00 582.00
C 222.54 576.72 228.59 568.83 233.00 561.00
C 233.70 559.76 235.43 556.11 237.00 556.00
C 239.75 555.81 237.09 565.87 237.00 568.00
C 236.21 579.83 245.29 589.35 256.00 592.00
C 258.36 592.06 264.69 592.03 267.00 592.00
C 280.28 589.91 289.13 578.72 299.00 570.00
C 297.79 581.37 306.49 590.04 317.33 588.33 C 328.16 586.61 330.43 575.37 334.00 567.00
C 334.55 564.29 335.38 563.49 337.00 561.00
C 338.89 556.00 341.97 548.68 344.08 544.08 C 346.18 539.47 349.99 532.47 351.75 528.75 C 353.51 525.02 360.06 515.19 362.00 520.00
C 362.19 519.04 361.84 517.97 362.00 517.00
C 363.06 520.30 364.89 532.25 361.00 532.00
C 360.39 538.33 358.83 544.62 359.00 551.00
C 359.25 549.59 360.09 546.24 361.00 545.00
C 360.11 547.47 363.03 555.71 359.00 554.00
C 352.85 570.00 368.38 590.83 384.98 586.98 C 401.57 583.12 408.06 570.65 418.00 559.00
C 421.52 568.79 421.13 580.97 432.00 586.00
C 433.49 586.33 442.20 587.15 444.00 587.00
C 451.79 584.57 450.17 577.77 449.00 571.00
C 449.17 571.40 446.24 570.03 447.00 567.00 C 447.76 563.97 447.76 562.02 447.00 559.00 C 446.24 555.98 449.12 554.66 449.00 555.00
C 450.36 541.08 453.11 524.20 456.02 511.02 C 458.94 497.85 466.08 481.13 449.07 476.93 C 432.07 472.72 429.54 491.05 425.99 502.99 C 422.44 514.94 422.14 532.14 413.77 541.77 C 405.40 551.40 400.06 563.80 387.00 566.00
C 385.13 552.84 390.33 540.69 390.00 528.00
C 389.72 523.24 389.80 516.67 390.00 512.00
C 387.88 501.74 385.10 491.85 373.00 490.00
C 373.44 490.15 374.79 491.40 375.00 492.00
C 371.50 491.38 366.68 493.27 364.00 491.00
C 349.16 496.31 340.60 512.56 335.00 526.00
C 335.02 516.72 336.66 507.33 340.67 497.67 C 344.68 488.01 338.68 478.22 329.08 476.92 C 319.47 475.63 312.77 478.92 309.98 488.98 C 307.18 499.03 306.96 509.62 304.33 519.33 C 301.70 529.04 303.66 539.59 297.75 547.75 C 291.85 555.91 289.17 558.73 281.25 566.25 C 273.32 573.77 266.00 577.25 266.00 562.00
C 265.46 564.44 264.33 567.89 265.00 571.00
C 263.83 568.25 262.29 560.12 266.00 559.00
C 268.05 544.15 271.20 532.76 275.01 518.01 C 278.81 503.26 280.93 489.25 261.00 489.00
C 260.59 489.12 254.62 491.78 254.00 492.00
C 233.69 512.27 231.59 545.28 210.00 566.00
C 208.80 565.63 207.80 564.75 207.00 564.00
C 204.80 561.92 204.53 559.02 205.00 555.00
C 206.98 555.47 204.89 558.60 207.00 559.00
C 207.38 545.96 212.50 530.34 214.22 518.22 C 215.95 506.11 226.10 492.19 220.00 481.00
C 218.56 479.18 209.18 474.32 208.00 474.00
C 191.52 472.31 189.83 488.47 186.98 500.98 C 184.12 513.48 180.00 528.54 180.00 542.00 Z"/>
</g>
<g fill="#0455A7" fill-opacity="0.63" stroke="None">
<path d="
M 220.00 481.00 
C 217.55 476.51 212.72 474.48 208.00 474.00
C 209.18 474.32 218.56 479.18 220.00 481.00 Z"/>
</g>
<g fill="#00428F" fill-opacity="0.83" stroke="None">
<path d="
M 827.00 476.00 
C 823.82 476.53 819.43 474.87 817.00 477.00
C 820.30 479.13 829.16 475.01 829.00 475.00
C 828.98 475.03 827.15 475.97 827.00 476.00 Z"/>
</g>
<g fill="#0269CD" fill-opacity="0.95" stroke="None">
<path d="
M 865.00 542.00 
C 865.05 543.56 865.40 545.62 866.00 548.00 C 866.59 550.38 863.79 551.82 864.00 551.00
C 863.61 561.19 865.39 571.81 871.08 579.92 C 876.77 588.03 884.78 591.45 894.00 593.00 C 903.22 594.55 915.18 590.70 921.92 585.92 C 928.66 581.14 936.98 575.40 940.75 568.75 C 944.52 562.11 955.94 553.41 951.30 545.70 C 946.66 537.99 937.56 554.36 933.23 558.23 C 928.90 562.10 918.29 571.02 912.00 572.00
C 913.00 572.14 914.73 571.51 915.00 573.00
C 912.38 572.98 903.66 576.37 905.00 572.00
C 893.93 570.41 891.31 554.97 896.00 548.00
C 897.91 545.17 898.73 547.06 903.00 547.00
C 925.31 541.89 944.07 526.67 944.00 501.00 C 943.93 475.33 909.58 469.36 893.25 486.25 C 876.91 503.14 868.71 518.68 865.00 542.00
M 897.00 533.00 
C 897.49 526.08 903.97 514.90 906.25 509.25 C 908.53 503.60 917.87 490.17 923.74 496.26 C 929.61 502.35 921.20 514.92 917.25 520.25 C 913.29 525.58 903.75 531.99 897.00 533.00 Z"/>
</g>
<g fill="#0080FF" fill-opacity="0.01" stroke="None">
<path d="
M 800.00 480.00 
C 799.18 479.18 800.74 480.74 800.00 480.00 Z"/>
</g>
<g fill="#07488E" fill-opacity="0.98" stroke="None">
<path d="
M 556.00 499.00 
C 555.67 495.40 556.00 491.62 556.00 488.00
C 556.00 486.33 556.00 484.67 556.00 483.00
C 555.68 486.32 552.83 495.94 556.00 499.00 Z"/>
</g>
<g fill="#0856A7" fill-opacity="0.56" stroke="None">
<path d="
M 254.00 492.00 
C 254.62 491.78 260.59 489.12 261.00 489.00
C 256.35 488.94 258.18 489.21 254.00 492.00 Z"/>
</g>
<g fill="#094385" fill-opacity="0.90" stroke="None">
<path d="
M 524.00 490.00 
C 525.43 493.36 525.08 497.96 525.00 502.00
C 524.95 504.39 524.91 505.51 525.00 508.00
C 525.73 501.16 525.14 493.45 524.00 488.00
C 524.00 488.50 524.00 489.50 524.00 490.00 Z"/>
</g>
<g fill="#0F6FC6" fill-opacity="0.19" stroke="None">
<path d="
M 556.00 499.00 
C 556.00 499.00 556.95 498.85 557.00 499.00
C 557.00 495.23 556.33 491.10 556.00 488.00
C 556.00 491.62 555.67 495.40 556.00 499.00 Z"/>
</g>
<g fill="#0953A1" fill-opacity="0.67" stroke="None">
<path d="
M 364.00 491.00 
C 366.68 493.27 371.50 491.38 375.00 492.00
C 374.79 491.40 373.44 490.15 373.00 490.00
C 369.83 489.52 366.85 490.21 364.00 491.00 Z"/>
</g>
<g fill="#0B70CF" fill-opacity="0.16" stroke="None">
<path d="
M 525.00 502.00 
C 525.08 497.96 525.43 493.36 524.00 490.00
C 524.00 494.07 524.69 498.61 525.00 502.00 Z"/>
</g>
<g fill="#00499A" fill-opacity="0.75" stroke="None">
<path d="
M 568.00 492.00 
C 567.44 493.73 567.46 495.27 567.00 497.00
C 566.84 497.27 568.08 495.91 569.07 494.08 C 570.06 492.25 568.07 490.38 568.00 492.00 Z"/>
</g>
<g fill="#07519C" fill-opacity="0.66" stroke="None">
<path d="
M 606.00 501.00 
C 606.20 500.40 608.85 499.24 608.00 497.00 C 607.14 494.77 607.08 494.35 607.00 493.00
C 606.64 495.67 606.35 498.21 606.00 501.00 Z"/>
</g>
<g fill="#000000" fill-opacity="0.00" stroke="None">
<path d="
M 897.00 533.00 
C 903.75 531.99 913.29 525.58 917.25 520.25 C 921.20 514.92 929.61 502.35 923.74 496.26 C 917.87 490.17 908.53 503.60 906.25 509.25 C 903.97 514.90 897.49 526.08 897.00 533.00 Z"/>
</g>
<g fill="#000000" fill-opacity="0.00" stroke="None">
<path d="
M 788.00 565.00 
C 788.74 563.83 791.14 563.01 792.00 562.00
C 805.30 542.27 818.40 521.53 823.00 497.00
C 800.08 506.69 784.08 540.37 785.00 566.00
C 785.80 566.84 787.53 564.74 788.00 565.00 Z"/>
</g>
<g fill="#004DA2" fill-opacity="0.58" stroke="None">
<path d="
M 486.00 513.00 
C 487.56 509.06 488.15 507.05 488.00 502.00
C 487.18 506.65 486.10 510.73 486.00 513.00 Z"/>
</g>
<g fill="#0752A1" fill-opacity="0.69" stroke="None">
<path d="
M 558.00 515.00 
C 557.67 511.20 557.19 507.67 557.00 504.00
C 556.77 506.17 556.62 508.01 556.00 511.00 C 555.38 513.99 558.15 515.33 558.00 515.00 Z"/>
</g>
<g fill="#000000" fill-opacity="0.00" stroke="None">
<path d="
M 691.00 554.00 
C 690.44 557.66 690.29 560.21 691.00 564.00
C 692.57 578.66 705.59 571.60 710.23 562.23 C 714.87 552.86 718.45 544.54 721.01 534.01 C 723.57 523.47 713.70 517.20 712.00 507.00
C 699.99 518.12 693.52 537.53 691.00 554.00 Z"/>
</g>
<g fill="#02428B" fill-opacity="0.93" stroke="None">
<path d="
M 390.00 528.00 
C 389.97 527.00 390.00 526.00 390.00 525.00
C 390.00 521.48 390.98 516.71 391.00 514.00
C 390.82 513.17 390.16 512.79 390.00 512.00
C 389.80 516.67 389.72 523.24 390.00 528.00 Z"/>
</g>
<g fill="#083F80" fill-opacity="0.86" stroke="None">
<path d="
M 525.00 513.00 
C 525.00 514.00 525.00 515.00 525.00 516.00
C 525.75 519.42 524.81 524.02 525.00 527.00
C 525.23 528.15 525.82 528.80 526.00 530.00
C 526.26 527.30 526.34 523.38 527.00 520.00 C 527.66 516.62 524.87 512.51 525.00 513.00 Z"/>
</g>
<g fill="#0470D8" fill-opacity="0.08" stroke="None">
<path d="
M 390.00 525.00 
C 390.64 522.09 391.78 517.64 391.00 514.00
C 390.98 516.71 390.00 521.48 390.00 525.00 Z"/>
</g>
<g fill="#0871E2" fill-opacity="0.09" stroke="None">
<path d="
M 525.00 527.00 
C 524.81 524.02 525.75 519.42 525.00 516.00
C 525.00 519.44 524.33 523.64 525.00 527.00 Z"/>
</g>
<g fill="#08509E" fill-opacity="0.74" stroke="None">
<path d="
M 362.00 520.00 
C 361.20 523.96 361.39 527.98 361.00 532.00
C 364.89 532.25 363.06 520.30 362.00 517.00
C 361.84 517.97 362.19 519.04 362.00 520.00 Z"/>
</g>
<g fill="#064F9F" fill-opacity="0.66" stroke="None">
<path d="
M 113.00 554.00 
C 114.44 553.94 113.74 555.92 115.00 556.00
C 115.68 549.70 114.54 542.59 114.00 537.00
C 113.82 543.09 113.00 547.42 113.00 554.00 Z"/>
</g>
<g fill="#094D94" fill-opacity="0.73" stroke="None">
<path d="
M 759.00 541.00 
C 758.11 544.29 757.48 547.64 757.00 551.00
C 760.82 549.41 759.65 542.75 761.00 539.00
C 760.29 539.31 759.30 540.42 759.00 541.00 Z"/>
</g>
<g fill="#05428B" fill-opacity="0.90" stroke="None">
<path d="
M 180.00 544.00 
C 180.00 549.38 178.84 556.49 179.00 561.00
C 179.21 562.47 179.68 563.60 180.00 565.00
C 180.12 558.04 180.69 549.12 180.00 542.00
C 180.00 542.50 180.00 543.50 180.00 544.00 Z"/>
</g>
<g fill="#0751A2" fill-opacity="0.69" stroke="None">
<path d="
M 864.00 551.00 
C 863.79 551.82 866.59 550.38 866.00 548.00 C 865.40 545.62 865.05 543.56 865.00 542.00
C 864.50 545.13 864.13 547.72 864.00 551.00 Z"/>
</g>
<g fill="#0F71D0" fill-opacity="0.13" stroke="None">
<path d="
M 179.00 561.00 
C 178.84 556.49 180.00 549.38 180.00 544.00
C 178.28 548.06 178.31 556.09 179.00 561.00 Z"/>
</g>
<g fill="#054C98" fill-opacity="0.87" stroke="None">
<path d="
M 359.00 551.00 
C 359.03 552.00 359.00 553.00 359.00 554.00
C 363.03 555.71 360.11 547.47 361.00 545.00
C 360.09 546.24 359.25 549.59 359.00 551.00 Z"/>
</g>
<g fill="#0D549D" fill-opacity="0.67" stroke="None">
<path d="
M 896.00 548.00 
C 897.16 547.34 901.51 547.34 903.00 547.00
C 898.73 547.06 897.91 545.17 896.00 548.00 Z"/>
</g>
<g fill="#0554A7" fill-opacity="0.55" stroke="None">
<path d="
M 601.00 558.00 
C 601.76 554.06 602.41 551.28 602.00 547.00
C 601.68 550.64 601.00 554.07 601.00 558.00 Z"/>
</g>
<g fill="#0A3A73" fill-opacity="0.84" stroke="None">
<path d="
M 662.00 561.00 
C 664.60 557.50 662.21 551.54 662.00 548.00
C 661.57 552.64 662.45 556.22 662.00 561.00 Z"/>
</g>
<g fill="#0250A2" fill-opacity="0.67" stroke="None">
<path d="
M 449.00 571.00 
C 448.04 565.44 448.56 560.75 449.00 555.00
C 449.12 554.66 446.24 555.98 447.00 559.00 C 447.76 562.02 447.76 563.97 447.00 567.00 C 446.24 570.03 449.17 571.40 449.00 571.00 Z"/>
</g>
<g fill="#0552A4" fill-opacity="0.62" stroke="None">
<path d="
M 691.00 564.00 
C 690.29 560.21 690.44 557.66 691.00 554.00
C 690.54 555.39 688.95 555.84 689.00 559.00 C 689.05 562.16 690.50 562.63 691.00 564.00 Z"/>
</g>
<g fill="#004BA3" fill-opacity="0.71" stroke="None">
<path d="
M 207.00 564.00 
C 205.88 562.17 206.95 560.79 207.00 559.00
C 204.89 558.60 206.98 555.47 205.00 555.00
C 204.53 559.02 204.80 561.92 207.00 564.00 Z"/>
</g>
<g fill="#084689" fill-opacity="0.97" stroke="None">
<path d="
M 237.00 556.00 
C 236.04 558.95 237.00 563.87 237.00 567.00
C 237.00 567.00 237.03 567.50 237.00 568.00
C 237.09 565.87 239.75 555.81 237.00 556.00 Z"/>
</g>
<g fill="#076FD0" fill-opacity="0.08" stroke="None">
<path d="
M 233.00 561.00 
C 234.29 560.83 234.75 559.30 236.00 559.00
C 236.12 561.78 235.43 564.88 237.00 567.00
C 237.00 563.87 236.04 558.95 237.00 556.00
C 235.43 556.11 233.70 559.76 233.00 561.00 Z"/>
</g>
<g fill="#084C91" fill-opacity="0.89" stroke="None">
<path d="
M 266.00 562.00 
C 266.00 561.04 265.87 559.95 266.00 559.00
C 262.29 560.12 263.83 568.25 265.00 571.00
C 264.33 567.89 265.46 564.44 266.00 562.00 Z"/>
</g>
<g fill="#0653A4" fill-opacity="0.65" stroke="None">
<path d="
M 334.00 567.00 
C 334.77 565.20 336.20 563.12 337.00 561.00
C 335.38 563.49 334.55 564.29 334.00 567.00 Z"/>
</g>
<g fill="#064A98" fill-opacity="0.67" stroke="None">
<path d="
M 664.00 570.00 
C 663.68 567.49 665.55 563.64 662.00 562.00
C 662.07 565.16 663.03 567.17 664.00 570.00 Z"/>
</g>
<g fill="#08498C" fill-opacity="0.69" stroke="None">
<path d="
M 788.00 565.00 
C 787.97 564.98 787.44 568.43 789.75 565.75 C 792.06 563.08 790.56 564.53 792.00 562.00
C 791.14 563.01 788.74 563.83 788.00 565.00 Z"/>
</g>
<g fill="#094B95" fill-opacity="0.88" stroke="None">
<path d="
M 819.00 572.00 
C 819.00 576.49 817.99 582.34 818.00 586.00
C 818.19 587.88 818.69 589.24 819.00 591.00
C 819.33 583.30 819.76 573.82 819.00 566.00
C 819.00 568.00 819.00 570.00 819.00 572.00 Z"/>
</g>
<g fill="#0D69C0" fill-opacity="0.20" stroke="None">
<path d="
M 818.00 586.00 
C 817.99 582.34 819.00 576.49 819.00 572.00
C 818.62 575.96 817.52 581.25 818.00 586.00 Z"/>
</g>
<g fill="#0B53A0" fill-opacity="0.71" stroke="None">
<path d="
M 912.00 572.00 
C 909.99 572.31 907.02 572.29 905.00 572.00
C 903.66 576.37 912.38 572.98 915.00 573.00
C 914.73 571.51 913.00 572.14 912.00 572.00 Z"/>
</g>
<g fill="#0552AA" fill-opacity="0.62" stroke="None">
<path d="
M 209.00 585.00 
C 211.28 584.35 213.21 583.25 215.00 582.00
C 215.16 581.93 212.19 581.37 211.23 582.23 C 210.28 583.09 209.29 584.85 209.00 585.00 Z"/>
</g>
<g fill="#0E5398" fill-opacity="0.60" stroke="None">
<path d="
M 432.00 586.00 
C 436.07 587.88 439.28 588.47 444.00 587.00
C 442.20 587.15 433.49 586.33 432.00 586.00 Z"/>
</g>
<g fill="#03529E" fill-opacity="0.58" stroke="None">
<path d="
M 256.00 592.00 
C 259.64 592.90 262.94 592.86 267.00 592.00
C 264.69 592.03 258.36 592.06 256.00 592.00 Z"/>
</g>
<g fill="#0B539A" fill-opacity="0.63" stroke="None">
<path d="
M 838.00 601.00 
C 841.25 598.75 842.14 595.65 843.00 592.00
C 842.82 592.43 838.02 600.98 838.00 601.00 Z"/>
</g>
<g fill="#0E589E" fill-opacity="0.58" stroke="None">
<path d="
M 615.00 604.00 
C 618.27 605.02 620.05 604.90 623.00 604.00
C 622.28 604.05 615.78 604.07 615.00 604.00 Z"/>
</g>
</svg>