<svg xmlns="http://www.w3.org/2000/svg" xmlns:v="https://svgstorm.com"
viewBox = "0 0 428 113"
width="428"
height="113">
<g fill="None" fill-opacity="0.0" stroke="#000000" stroke-opacity="0.00" stroke-width="0.3"><path d="
M 0.00 113.00 
L 23.00 113.00
C 18.56 108.28 18.13 102.29 18.00 96.00
C 17.90 91.00 18.00 86.00 18.00 81.00
C 18.00 64.80 20.38 48.13 23.00 32.00
C 15.93 35.63 -5.71 29.03 4.10 21.10 C 13.91 13.17 23.79 16.69 35.02 14.02 C 46.26 11.36 60.60 14.54 71.00 17.00
C 72.14 17.64 73.69 18.65 74.00 20.00
C 76.97 32.82 52.53 22.27 48.78 28.78 C 45.03 35.29 45.15 48.47 42.67 56.67 C 40.19 64.87 39.45 76.27 37.02 85.02 C 34.60 93.78 35.51 105.22 30.00 113.00
L 263.00 113.00
C 263.00 112.50 263.00 112.00 263.00 112.00
C 252.01 108.46 255.64 83.15 256.00 74.00
C 256.07 72.16 256.84 70.18 257.00 69.00
C 257.02 67.67 257.00 66.33 257.00 65.00
C 257.00 62.23 257.80 59.04 258.00 57.00
C 257.24 48.86 260.75 40.14 259.00 33.00
C 255.93 43.01 249.87 58.95 248.02 69.02 C 246.18 79.10 239.04 99.54 226.31 91.69 C 213.57 83.85 221.69 63.52 218.00 52.00
C 217.92 51.81 216.08 51.81 216.00 52.00
C 215.27 60.71 213.01 76.67 211.22 84.22 C 209.43 91.77 209.43 111.38 199.78 108.22 C 190.13 105.06 197.32 87.26 198.00 79.00 C 198.68 70.74 201.18 55.04 202.00 46.00 C 202.82 36.96 202.24 22.60 209.70 16.70 C 217.17 10.80 231.47 17.20 232.99 27.01 C 234.51 36.82 236.05 51.14 235.00 62.00
C 234.51 62.37 236.52 62.53 237.00 62.00
C 240.14 47.38 246.92 34.02 251.78 19.78 C 256.64 5.54 275.07 -6.42 280.00 14.00
C 280.19 14.78 280.89 15.70 281.00 17.00
C 281.38 21.45 280.35 26.34 280.00 30.00
C 282.67 57.54 274.17 87.04 269.00 113.00
L 361.00 113.00
C 359.09 103.35 365.12 93.75 362.00 85.00
C 359.21 92.62 353.23 106.73 342.00 104.00 C 330.77 101.27 333.15 84.13 336.00 76.00
C 332.19 76.06 328.94 78.31 325.00 78.00
C 324.84 78.08 323.01 78.98 323.00 79.00
C 318.45 89.12 320.21 103.88 305.92 106.92 C 291.64 109.97 285.95 95.13 287.93 82.93 C 289.91 70.73 292.43 61.37 302.25 52.25 C 312.07 43.12 328.02 53.67 325.00 67.00
C 336.10 67.86 340.74 62.65 348.23 56.23 C 355.72 49.81 365.97 52.68 367.33 41.33 C 368.68 29.98 368.78 24.17 373.92 13.92 C 379.07 3.68 392.71 14.90 388.67 24.67 C 384.63 34.44 387.26 44.39 384.07 54.07 C 380.89 63.76 382.46 74.29 380.00 84.00 C 377.54 93.71 377.58 103.36 375.00 113.00
L 428.00 113.00
L 428.00 0.00
L 0.00 0.00
L 0.00 113.00
M 188.00 27.00 
C 198.63 30.03 193.30 48.31 182.32 44.66 C 171.34 41.01 176.27 23.65 188.00 27.00
M 68.00 50.00 
C 69.32 50.79 70.35 51.62 71.00 53.00
C 76.64 64.99 59.21 81.77 65.00 94.00
C 69.65 84.27 77.00 78.41 79.31 67.31 C 81.61 56.20 100.43 51.29 98.07 65.07 C 95.71 78.85 92.99 86.38 92.00 100.00
C 98.71 97.61 100.92 92.20 105.77 86.77 C 110.62 81.34 109.70 72.14 111.00 65.00 C 112.30 57.86 114.02 48.23 124.00 51.00 C 133.98 53.77 126.85 63.30 129.00 69.00
C 132.15 62.25 140.88 52.24 148.70 59.30 C 156.52 66.37 151.64 79.52 153.00 89.00
C 153.00 90.39 153.45 92.69 153.00 94.00
C 169.46 85.95 164.07 62.53 173.77 50.77 C 183.47 39.01 189.86 55.23 187.22 62.22 C 184.59 69.21 183.56 83.00 183.00 91.00
C 182.77 94.24 182.76 97.15 182.00 100.00
C 180.39 106.01 177.70 105.21 172.26 103.74 C 166.82 102.28 169.34 95.55 167.00 93.00
C 166.81 93.48 165.31 93.71 165.00 94.00
C 159.06 99.54 151.58 110.01 142.26 103.74 C 132.93 97.48 140.34 83.78 138.00 74.00
C 133.81 81.31 128.44 87.44 126.08 96.08 C 123.71 104.71 112.33 110.34 108.00 99.00
C 107.19 100.13 105.04 101.14 104.00 102.00
C 93.72 110.54 80.42 111.73 78.00 96.00
C 77.78 94.59 77.18 92.90 77.00 92.00
C 73.78 101.09 61.42 109.03 53.75 100.25 C 46.08 91.46 51.18 77.46 51.00 68.00 C 50.82 58.54 57.59 43.78 68.00 50.00
M 420.00 100.00 
C 419.29 100.87 418.79 101.30 418.00 102.00
C 413.20 106.22 406.20 111.26 399.00 109.00 C 391.80 106.74 388.80 101.72 387.01 94.99 C 385.22 88.26 385.80 78.33 387.78 71.78 C 389.76 65.22 392.30 60.11 397.25 55.25 C 402.19 50.39 410.51 48.27 416.69 51.31 C 422.87 54.35 424.83 65.19 422.07 70.07 C 419.32 74.96 418.40 84.77 409.97 83.97 C 401.55 83.18 397.09 91.74 403.00 100.00
C 413.28 96.75 413.76 90.96 421.30 83.30 C 428.84 75.65 427.94 96.50 420.00 100.00 Z"/>
</g>
<g fill="None" fill-opacity="0.0" stroke="#036BC3" stroke-opacity="0.91" stroke-width="0.3"><path d="
M 237.00 62.00 
C 236.34 65.08 236.45 68.06 234.00 70.00
C 234.56 67.48 232.81 63.70 235.00 62.00
C 236.05 51.14 234.51 36.82 232.99 27.01 C 231.47 17.20 217.17 10.80 209.70 16.70 C 202.24 22.60 202.82 36.96 202.00 46.00 C 201.18 55.04 198.68 70.74 198.00 79.00 C 197.32 87.26 190.13 105.06 199.78 108.22 C 209.43 111.38 209.43 91.77 211.22 84.22 C 213.01 76.67 215.27 60.71 216.00 52.00
C 216.05 51.39 215.58 49.15 217.00 48.00
C 218.60 48.53 217.72 50.75 218.00 52.00
C 221.69 63.52 213.57 83.85 226.31 91.69 C 239.04 99.54 246.18 79.10 248.02 69.02 C 249.87 58.95 255.93 43.01 259.00 33.00
C 260.75 40.14 257.24 48.86 258.00 57.00
C 258.17 58.85 258.03 58.75 258.99 61.01 C 259.96 63.26 257.16 64.45 257.00 65.00
C 257.00 66.33 257.02 67.67 257.00 69.00
C 256.97 70.89 256.17 72.79 256.00 74.00
C 255.64 83.15 252.01 108.46 263.00 112.00
C 264.31 111.58 267.41 111.63 268.00 113.00
L 269.00 113.00
C 274.17 87.04 282.67 57.54 280.00 30.00
C 279.53 25.15 279.90 18.68 280.00 14.00
C 275.07 -6.42 256.64 5.54 251.78 19.78 C 246.92 34.02 240.14 47.38 237.00 62.00
M 262.00 27.00 
C 262.86 32.71 257.71 28.75 262.00 27.00 Z"/>
</g>
<g fill="None" fill-opacity="0.0" stroke="#036AC2" stroke-opacity="0.89" stroke-width="0.3"><path d="
M 323.00 79.00 
C 323.52 76.54 324.19 75.07 329.00 76.00
C 328.53 77.98 325.40 75.89 325.00 78.00
C 328.94 78.31 332.19 76.06 336.00 76.00
C 333.15 84.13 330.77 101.27 342.00 104.00 C 353.23 106.73 359.21 92.62 362.00 85.00
C 365.12 93.75 359.09 103.35 361.00 113.00
L 375.00 113.00
C 377.58 103.36 377.54 93.71 380.00 84.00 C 382.46 74.29 380.89 63.76 384.07 54.07 C 387.26 44.39 384.63 34.44 388.67 24.67 C 392.71 14.90 379.07 3.68 373.92 13.92 C 368.78 24.17 368.68 29.98 367.33 41.33 C 365.97 52.68 355.72 49.81 348.23 56.23 C 340.74 62.65 336.10 67.86 325.00 67.00
C 328.02 53.67 312.07 43.12 302.25 52.25 C 292.43 61.37 289.91 70.73 287.93 82.93 C 285.95 95.13 291.64 109.97 305.92 106.92 C 320.21 103.88 318.45 89.12 323.00 79.00
M 357.00 68.00 
C 357.47 67.23 357.64 66.12 360.00 65.00
C 360.84 64.60 361.76 63.10 363.00 63.00
C 360.46 73.92 354.72 83.81 348.00 93.00
C 346.95 84.78 353.37 75.84 357.00 68.00
M 312.00 70.00 
C 318.61 76.28 311.19 94.57 304.00 98.00
C 304.05 96.24 302.47 94.93 303.00 93.00
C 302.16 89.56 303.22 89.77 304.00 87.00
C 304.52 80.57 306.56 74.50 310.00 69.00
C 311.22 67.05 311.07 67.99 312.00 70.00 Z"/>
</g>
<g fill="None" fill-opacity="0.0" stroke="#026BC4" stroke-opacity="0.90" stroke-width="0.3"><path d="
M 18.00 81.00 
C 18.28 82.33 19.69 84.67 20.00 88.00 C 20.31 91.33 18.25 94.68 18.00 96.00
C 18.13 102.29 18.56 108.28 23.00 113.00
L 30.00 113.00
C 35.51 105.22 34.60 93.78 37.02 85.02 C 39.45 76.27 40.19 64.87 42.67 56.67 C 45.15 48.47 45.03 35.29 48.78 28.78 C 52.53 22.27 76.97 32.82 74.00 20.00
C 71.59 21.22 71.64 17.51 71.00 17.00
C 60.60 14.54 46.26 11.36 35.02 14.02 C 23.79 16.69 13.91 13.17 4.10 21.10 C -5.71 29.03 15.93 35.63 23.00 32.00
C 20.38 48.13 18.00 64.80 18.00 81.00 Z"/>
</g>
<g fill="None" fill-opacity="0.0" stroke="#086BB2" stroke-opacity="0.55" stroke-width="0.3"><path d="
M 280.00 30.00 
C 279.05 25.75 280.82 20.45 281.00 17.00
C 280.89 15.70 280.19 14.78 280.00 14.00
C 279.90 18.68 279.53 25.15 280.00 30.00 Z"/>
</g>
<g fill="None" fill-opacity="0.0" stroke="#005BAB" stroke-opacity="0.17" stroke-width="0.3"><path d="
M 74.00 20.00 
C 73.69 18.65 72.14 17.64 71.00 17.00
C 71.64 17.51 71.59 21.22 74.00 20.00 Z"/>
</g>
<g fill="None" fill-opacity="0.0" stroke="#004886" stroke-opacity="0.02" stroke-width="0.3"><path d="
M 280.00 30.00 
C 280.35 26.34 281.38 21.45 281.00 17.00
C 280.82 20.45 279.05 25.75 280.00 30.00 Z"/>
</g>
<g fill="None" fill-opacity="0.0" stroke="#0569BE" stroke-opacity="0.82" stroke-width="0.3"><path d="
M 188.00 27.00 
C 176.27 23.65 171.34 41.01 182.32 44.66 C 193.30 48.31 198.63 30.03 188.00 27.00 Z"/>
</g>
<g fill="None" fill-opacity="0.0" stroke="#066DC2" stroke-opacity="0.57" stroke-width="0.3"><path d="
M 262.00 27.00 
C 257.71 28.75 262.86 32.71 262.00 27.00 Z"/>
</g>
<g fill="None" fill-opacity="0.0" stroke="#036AC2" stroke-opacity="0.88" stroke-width="0.3"><path d="
M 77.00 92.00 
C 77.08 91.79 76.46 87.91 79.00 88.00
C 80.13 90.09 81.49 95.84 78.00 96.00
C 80.42 111.73 93.72 110.54 104.00 102.00
C 104.33 101.58 106.19 97.14 108.00 96.00
C 109.28 96.22 109.42 98.81 108.00 99.00
C 112.33 110.34 123.71 104.71 126.08 96.08 C 128.44 87.44 133.81 81.31 138.00 74.00
C 140.34 83.78 132.93 97.48 142.26 103.74 C 151.58 110.01 159.06 99.54 165.00 94.00
C 164.27 95.04 168.73 88.66 167.00 93.00
C 169.34 95.55 166.82 102.28 172.26 103.74 C 177.70 105.21 180.39 106.01 182.00 100.00
C 182.10 98.67 181.54 96.36 181.00 94.00 C 180.46 91.64 183.21 90.35 183.00 91.00
C 183.56 83.00 184.59 69.21 187.22 62.22 C 189.86 55.23 183.47 39.01 173.77 50.77 C 164.07 62.53 169.46 85.95 153.00 94.00
C 152.60 94.20 152.00 94.00 152.00 94.00
C 150.53 92.86 150.54 90.14 152.00 89.00
C 152.05 88.85 153.00 89.00 153.00 89.00
C 151.64 79.52 156.52 66.37 148.70 59.30 C 140.88 52.24 132.15 62.25 129.00 69.00
C 126.85 63.30 133.98 53.77 124.00 51.00 C 114.02 48.23 112.30 57.86 111.00 65.00 C 109.70 72.14 110.62 81.34 105.77 86.77 C 100.92 92.20 98.71 97.61 92.00 100.00
C 92.99 86.38 95.71 78.85 98.07 65.07 C 100.43 51.29 81.61 56.20 79.31 67.31 C 77.00 78.41 69.65 84.27 65.00 94.00
C 59.21 81.77 76.64 64.99 71.00 53.00
C 71.65 54.11 66.03 48.56 68.00 50.00
C 57.59 43.78 50.82 58.54 51.00 68.00 C 51.18 77.46 46.08 91.46 53.75 100.25 C 61.42 109.03 73.78 101.09 77.00 92.00
M 129.00 70.00 
C 127.89 75.87 123.42 69.42 129.00 70.00
M 126.00 73.00 
C 128.35 77.66 122.73 76.53 126.00 73.00 Z"/>
</g>
<g fill="None" fill-opacity="0.0" stroke="#00468E" stroke-opacity="0.14" stroke-width="0.3"><path d="
M 216.00 52.00 
C 216.08 51.81 217.92 51.81 218.00 52.00
C 217.72 50.75 218.60 48.53 217.00 48.00
C 215.58 49.15 216.05 51.39 216.00 52.00 Z"/>
</g>
<g fill="None" fill-opacity="0.0" stroke="#065290" stroke-opacity="0.25" stroke-width="0.3"><path d="
M 71.00 53.00 
C 70.35 51.62 69.32 50.79 68.00 50.00
C 66.03 48.56 71.65 54.11 71.00 53.00 Z"/>
</g>
<g fill="None" fill-opacity="0.0" stroke="#0469BF" stroke-opacity="0.86" stroke-width="0.3"><path d="
M 418.00 102.00 
C 417.77 102.28 420.44 99.58 420.00 100.00
C 427.94 96.50 428.84 75.65 421.30 83.30 C 413.76 90.96 413.28 96.75 403.00 100.00
C 397.09 91.74 401.55 83.18 409.97 83.97 C 418.40 84.77 419.32 74.96 422.07 70.07 C 424.83 65.19 422.87 54.35 416.69 51.31 C 410.51 48.27 402.19 50.39 397.25 55.25 C 392.30 60.11 389.76 65.22 387.78 71.78 C 385.80 78.33 385.22 88.26 387.01 94.99 C 388.80 101.72 391.80 106.74 399.00 109.00 C 406.20 111.26 413.20 106.22 418.00 102.00
M 404.00 75.00 
C 401.07 78.34 405.00 71.15 404.00 73.00
C 405.52 68.63 407.95 61.63 413.00 60.00
C 413.77 66.12 410.45 73.82 404.00 75.00 Z"/>
</g>
<g fill="None" fill-opacity="0.0" stroke="#0763AC" stroke-opacity="0.42" stroke-width="0.3"><path d="
M 257.00 65.00 
C 257.16 64.45 259.96 63.26 258.99 61.01 C 258.03 58.75 258.17 58.85 258.00 57.00
C 257.80 59.04 257.00 62.23 257.00 65.00 Z"/>
</g>
<g fill="None" fill-opacity="0.0" stroke="#000000" stroke-opacity="0.00" stroke-width="0.3"><path d="
M 404.00 73.00 
C 403.84 73.45 403.84 74.94 404.00 75.00
C 410.45 73.82 413.77 66.12 413.00 60.00
C 407.95 61.63 405.52 68.63 404.00 73.00 Z"/>
</g>
<g fill="None" fill-opacity="0.0" stroke="#0561B0" stroke-opacity="0.47" stroke-width="0.3"><path d="
M 237.00 62.00 
C 236.52 62.53 234.51 62.37 235.00 62.00
C 232.81 63.70 234.56 67.48 234.00 70.00
C 236.45 68.06 236.34 65.08 237.00 62.00 Z"/>
</g>
<g fill="None" fill-opacity="0.0" stroke="#000000" stroke-opacity="0.00" stroke-width="0.3"><path d="
M 360.00 65.00 
C 359.27 65.58 357.58 67.33 357.00 68.00
C 353.37 75.84 346.95 84.78 348.00 93.00
C 354.72 83.81 360.46 73.92 363.00 63.00
C 361.76 63.10 360.84 64.60 360.00 65.00 Z"/>
</g>
<g fill="None" fill-opacity="0.0" stroke="#015B88" stroke-opacity="0.28" stroke-width="0.3"><path d="
M 357.00 68.00 
C 357.58 67.33 359.27 65.58 360.00 65.00
C 357.64 66.12 357.47 67.23 357.00 68.00 Z"/>
</g>
<g fill="None" fill-opacity="0.0" stroke="#004299" stroke-opacity="0.22" stroke-width="0.3"><path d="
M 310.00 69.00 
C 310.43 69.52 311.58 69.60 312.00 70.00
C 311.07 67.99 311.22 67.05 310.00 69.00 Z"/>
</g>
<g fill="None" fill-opacity="0.0" stroke="#000D80" stroke-opacity="0.01" stroke-width="0.3"><path d="
M 256.00 74.00 
C 256.17 72.79 256.97 70.89 257.00 69.00
C 256.84 70.18 256.07 72.16 256.00 74.00 Z"/>
</g>
<g fill="None" fill-opacity="0.0" stroke="#000000" stroke-opacity="0.00" stroke-width="0.3"><path d="
M 304.00 87.00 
C 303.87 88.59 302.98 92.18 303.00 93.00
C 302.47 94.93 304.05 96.24 304.00 98.00
C 311.19 94.57 318.61 76.28 312.00 70.00
C 311.58 69.60 310.43 69.52 310.00 69.00
C 306.56 74.50 304.52 80.57 304.00 87.00 Z"/>
</g>
<g fill="None" fill-opacity="0.0" stroke="#014B95" stroke-opacity="0.20" stroke-width="0.3"><path d="
M 129.00 70.00 
C 123.42 69.42 127.89 75.87 129.00 70.00 Z"/>
</g>
<g fill="None" fill-opacity="0.0" stroke="#0B67BB" stroke-opacity="0.61" stroke-width="0.3"><path d="
M 404.00 75.00 
C 403.84 74.94 403.84 73.45 404.00 73.00
C 405.00 71.15 401.07 78.34 404.00 75.00 Z"/>
</g>
<g fill="None" fill-opacity="0.0" stroke="#0570CC" stroke-opacity="0.63" stroke-width="0.3"><path d="
M 126.00 73.00 
C 122.73 76.53 128.35 77.66 126.00 73.00 Z"/>
</g>
<g fill="None" fill-opacity="0.0" stroke="#0A73B2" stroke-opacity="0.43" stroke-width="0.3"><path d="
M 323.00 79.00 
C 323.01 78.98 324.84 78.08 325.00 78.00
C 325.40 75.89 328.53 77.98 329.00 76.00
C 324.19 75.07 323.52 76.54 323.00 79.00 Z"/>
</g>
<g fill="None" fill-opacity="0.0" stroke="#075FAF" stroke-opacity="0.57" stroke-width="0.3"><path d="
M 18.00 96.00 
C 18.25 94.68 20.31 91.33 20.00 88.00 C 19.69 84.67 18.28 82.33 18.00 81.00
C 18.00 86.00 17.90 91.00 18.00 96.00 Z"/>
</g>
<g fill="None" fill-opacity="0.0" stroke="#0054AF" stroke-opacity="0.25" stroke-width="0.3"><path d="
M 303.00 93.00 
C 302.98 92.18 303.87 88.59 304.00 87.00
C 303.22 89.77 302.16 89.56 303.00 93.00 Z"/>
</g>
<g fill="None" fill-opacity="0.0" stroke="#0764B2" stroke-opacity="0.59" stroke-width="0.3"><path d="
M 77.00 92.00 
C 77.18 92.90 77.78 94.59 78.00 96.00
C 81.49 95.84 80.13 90.09 79.00 88.00
C 76.46 87.91 77.08 91.79 77.00 92.00 Z"/>
</g>
<g fill="None" fill-opacity="0.0" stroke="#1271C3" stroke-opacity="0.60" stroke-width="0.3"><path d="
M 152.00 94.00 
C 151.69 93.10 151.69 89.90 152.00 89.00
C 150.54 90.14 150.53 92.86 152.00 94.00 Z"/>
</g>
<g fill="None" fill-opacity="0.0" stroke="#003A74" stroke-opacity="0.03" stroke-width="0.3"><path d="
M 152.00 94.00 
C 152.00 94.00 152.60 94.20 153.00 94.00
C 153.45 92.69 153.00 90.39 153.00 89.00
C 153.00 89.00 152.05 88.85 152.00 89.00
C 151.69 89.90 151.69 93.10 152.00 94.00 Z"/>
</g>
<g fill="None" fill-opacity="0.0" stroke="#005B97" stroke-opacity="0.33" stroke-width="0.3"><path d="
M 182.00 100.00 
C 182.76 97.15 182.77 94.24 183.00 91.00
C 183.21 90.35 180.46 91.64 181.00 94.00 C 181.54 96.36 182.10 98.67 182.00 100.00 Z"/>
</g>
<g fill="None" fill-opacity="0.0" stroke="#0042B1" stroke-opacity="0.16" stroke-width="0.3"><path d="
M 165.00 94.00 
C 165.31 93.71 166.81 93.48 167.00 93.00
C 168.73 88.66 164.27 95.04 165.00 94.00 Z"/>
</g>
<g fill="None" fill-opacity="0.0" stroke="#0658A1" stroke-opacity="0.37" stroke-width="0.3"><path d="
M 104.00 102.00 
C 105.04 101.14 107.19 100.13 108.00 99.00
C 109.42 98.81 109.28 96.22 108.00 96.00
C 106.19 97.14 104.33 101.58 104.00 102.00 Z"/>
</g>
<g fill="None" fill-opacity="0.0" stroke="#0052B4" stroke-opacity="0.31" stroke-width="0.3"><path d="
M 418.00 102.00 
C 418.79 101.30 419.29 100.87 420.00 100.00
C 420.44 99.58 417.77 102.28 418.00 102.00 Z"/>
</g>
<g fill="None" fill-opacity="0.0" stroke="#004896" stroke-opacity="0.15" stroke-width="0.3"><path d="
M 263.00 113.00 
L 268.00 113.00
C 267.41 111.63 264.31 111.58 263.00 112.00
C 263.00 112.00 263.00 112.50 263.00 113.00 Z"/>
</g>
<g fill="#000000" fill-opacity="0.00" stroke="None">
<path d="
M 0.00 113.00 
L 23.00 113.00
C 18.56 108.28 18.13 102.29 18.00 96.00
C 17.90 91.00 18.00 86.00 18.00 81.00
C 18.00 64.80 20.38 48.13 23.00 32.00
C 15.93 35.63 -5.71 29.03 4.10 21.10 C 13.91 13.17 23.79 16.69 35.02 14.02 C 46.26 11.36 60.60 14.54 71.00 17.00
C 72.14 17.64 73.69 18.65 74.00 20.00
C 76.97 32.82 52.53 22.27 48.78 28.78 C 45.03 35.29 45.15 48.47 42.67 56.67 C 40.19 64.87 39.45 76.27 37.02 85.02 C 34.60 93.78 35.51 105.22 30.00 113.00
L 263.00 113.00
C 263.00 112.50 263.00 112.00 263.00 112.00
C 252.01 108.46 255.64 83.15 256.00 74.00
C 256.07 72.16 256.84 70.18 257.00 69.00
C 257.02 67.67 257.00 66.33 257.00 65.00
C 257.00 62.23 257.80 59.04 258.00 57.00
C 257.24 48.86 260.75 40.14 259.00 33.00
C 255.93 43.01 249.87 58.95 248.02 69.02 C 246.18 79.10 239.04 99.54 226.31 91.69 C 213.57 83.85 221.69 63.52 218.00 52.00
C 217.92 51.81 216.08 51.81 216.00 52.00
C 215.27 60.71 213.01 76.67 211.22 84.22 C 209.43 91.77 209.43 111.38 199.78 108.22 C 190.13 105.06 197.32 87.26 198.00 79.00 C 198.68 70.74 201.18 55.04 202.00 46.00 C 202.82 36.96 202.24 22.60 209.70 16.70 C 217.17 10.80 231.47 17.20 232.99 27.01 C 234.51 36.82 236.05 51.14 235.00 62.00
C 234.51 62.37 236.52 62.53 237.00 62.00
C 240.14 47.38 246.92 34.02 251.78 19.78 C 256.64 5.54 275.07 -6.42 280.00 14.00
C 280.19 14.78 280.89 15.70 281.00 17.00
C 281.38 21.45 280.35 26.34 280.00 30.00
C 282.67 57.54 274.17 87.04 269.00 113.00
L 361.00 113.00
C 359.09 103.35 365.12 93.75 362.00 85.00
C 359.21 92.62 353.23 106.73 342.00 104.00 C 330.77 101.27 333.15 84.13 336.00 76.00
C 332.19 76.06 328.94 78.31 325.00 78.00
C 324.84 78.08 323.01 78.98 323.00 79.00
C 318.45 89.12 320.21 103.88 305.92 106.92 C 291.64 109.97 285.95 95.13 287.93 82.93 C 289.91 70.73 292.43 61.37 302.25 52.25 C 312.07 43.12 328.02 53.67 325.00 67.00
C 336.10 67.86 340.74 62.65 348.23 56.23 C 355.72 49.81 365.97 52.68 367.33 41.33 C 368.68 29.98 368.78 24.17 373.92 13.92 C 379.07 3.68 392.71 14.90 388.67 24.67 C 384.63 34.44 387.26 44.39 384.07 54.07 C 380.89 63.76 382.46 74.29 380.00 84.00 C 377.54 93.71 377.58 103.36 375.00 113.00
L 428.00 113.00
L 428.00 0.00
L 0.00 0.00
L 0.00 113.00
M 188.00 27.00 
C 198.63 30.03 193.30 48.31 182.32 44.66 C 171.34 41.01 176.27 23.65 188.00 27.00
M 68.00 50.00 
C 69.32 50.79 70.35 51.62 71.00 53.00
C 76.64 64.99 59.21 81.77 65.00 94.00
C 69.65 84.27 77.00 78.41 79.31 67.31 C 81.61 56.20 100.43 51.29 98.07 65.07 C 95.71 78.85 92.99 86.38 92.00 100.00
C 98.71 97.61 100.92 92.20 105.77 86.77 C 110.62 81.34 109.70 72.14 111.00 65.00 C 112.30 57.86 114.02 48.23 124.00 51.00 C 133.98 53.77 126.85 63.30 129.00 69.00
C 132.15 62.25 140.88 52.24 148.70 59.30 C 156.52 66.37 151.64 79.52 153.00 89.00
C 153.00 90.39 153.45 92.69 153.00 94.00
C 169.46 85.95 164.07 62.53 173.77 50.77 C 183.47 39.01 189.86 55.23 187.22 62.22 C 184.59 69.21 183.56 83.00 183.00 91.00
C 182.77 94.24 182.76 97.15 182.00 100.00
C 180.39 106.01 177.70 105.21 172.26 103.74 C 166.82 102.28 169.34 95.55 167.00 93.00
C 166.81 93.48 165.31 93.71 165.00 94.00
C 159.06 99.54 151.58 110.01 142.26 103.74 C 132.93 97.48 140.34 83.78 138.00 74.00
C 133.81 81.31 128.44 87.44 126.08 96.08 C 123.71 104.71 112.33 110.34 108.00 99.00
C 107.19 100.13 105.04 101.14 104.00 102.00
C 93.72 110.54 80.42 111.73 78.00 96.00
C 77.78 94.59 77.18 92.90 77.00 92.00
C 73.78 101.09 61.42 109.03 53.75 100.25 C 46.08 91.46 51.18 77.46 51.00 68.00 C 50.82 58.54 57.59 43.78 68.00 50.00
M 420.00 100.00 
C 419.29 100.87 418.79 101.30 418.00 102.00
C 413.20 106.22 406.20 111.26 399.00 109.00 C 391.80 106.74 388.80 101.72 387.01 94.99 C 385.22 88.26 385.80 78.33 387.78 71.78 C 389.76 65.22 392.30 60.11 397.25 55.25 C 402.19 50.39 410.51 48.27 416.69 51.31 C 422.87 54.35 424.83 65.19 422.07 70.07 C 419.32 74.96 418.40 84.77 409.97 83.97 C 401.55 83.18 397.09 91.74 403.00 100.00
C 413.28 96.75 413.76 90.96 421.30 83.30 C 428.84 75.65 427.94 96.50 420.00 100.00 Z"/>
</g>
<g fill="#036BC3" fill-opacity="0.91" stroke="None">
<path d="
M 237.00 62.00 
C 236.34 65.08 236.45 68.06 234.00 70.00
C 234.56 67.48 232.81 63.70 235.00 62.00
C 236.05 51.14 234.51 36.82 232.99 27.01 C 231.47 17.20 217.17 10.80 209.70 16.70 C 202.24 22.60 202.82 36.96 202.00 46.00 C 201.18 55.04 198.68 70.74 198.00 79.00 C 197.32 87.26 190.13 105.06 199.78 108.22 C 209.43 111.38 209.43 91.77 211.22 84.22 C 213.01 76.67 215.27 60.71 216.00 52.00
C 216.05 51.39 215.58 49.15 217.00 48.00
C 218.60 48.53 217.72 50.75 218.00 52.00
C 221.69 63.52 213.57 83.85 226.31 91.69 C 239.04 99.54 246.18 79.10 248.02 69.02 C 249.87 58.95 255.93 43.01 259.00 33.00
C 260.75 40.14 257.24 48.86 258.00 57.00
C 258.17 58.85 258.03 58.75 258.99 61.01 C 259.96 63.26 257.16 64.45 257.00 65.00
C 257.00 66.33 257.02 67.67 257.00 69.00
C 256.97 70.89 256.17 72.79 256.00 74.00
C 255.64 83.15 252.01 108.46 263.00 112.00
C 264.31 111.58 267.41 111.63 268.00 113.00
L 269.00 113.00
C 274.17 87.04 282.67 57.54 280.00 30.00
C 279.53 25.15 279.90 18.68 280.00 14.00
C 275.07 -6.42 256.64 5.54 251.78 19.78 C 246.92 34.02 240.14 47.38 237.00 62.00
M 262.00 27.00 
C 262.86 32.71 257.71 28.75 262.00 27.00 Z"/>
</g>
<g fill="#036AC2" fill-opacity="0.89" stroke="None">
<path d="
M 323.00 79.00 
C 323.52 76.54 324.19 75.07 329.00 76.00
C 328.53 77.98 325.40 75.89 325.00 78.00
C 328.94 78.31 332.19 76.06 336.00 76.00
C 333.15 84.13 330.77 101.27 342.00 104.00 C 353.23 106.73 359.21 92.62 362.00 85.00
C 365.12 93.75 359.09 103.35 361.00 113.00
L 375.00 113.00
C 377.58 103.36 377.54 93.71 380.00 84.00 C 382.46 74.29 380.89 63.76 384.07 54.07 C 387.26 44.39 384.63 34.44 388.67 24.67 C 392.71 14.90 379.07 3.68 373.92 13.92 C 368.78 24.17 368.68 29.98 367.33 41.33 C 365.97 52.68 355.72 49.81 348.23 56.23 C 340.74 62.65 336.10 67.86 325.00 67.00
C 328.02 53.67 312.07 43.12 302.25 52.25 C 292.43 61.37 289.91 70.73 287.93 82.93 C 285.95 95.13 291.64 109.97 305.92 106.92 C 320.21 103.88 318.45 89.12 323.00 79.00
M 357.00 68.00 
C 357.47 67.23 357.64 66.12 360.00 65.00
C 360.84 64.60 361.76 63.10 363.00 63.00
C 360.46 73.92 354.72 83.81 348.00 93.00
C 346.95 84.78 353.37 75.84 357.00 68.00
M 312.00 70.00 
C 318.61 76.28 311.19 94.57 304.00 98.00
C 304.05 96.24 302.47 94.93 303.00 93.00
C 302.16 89.56 303.22 89.77 304.00 87.00
C 304.52 80.57 306.56 74.50 310.00 69.00
C 311.22 67.05 311.07 67.99 312.00 70.00 Z"/>
</g>
<g fill="#026BC4" fill-opacity="0.90" stroke="None">
<path d="
M 18.00 81.00 
C 18.28 82.33 19.69 84.67 20.00 88.00 C 20.31 91.33 18.25 94.68 18.00 96.00
C 18.13 102.29 18.56 108.28 23.00 113.00
L 30.00 113.00
C 35.51 105.22 34.60 93.78 37.02 85.02 C 39.45 76.27 40.19 64.87 42.67 56.67 C 45.15 48.47 45.03 35.29 48.78 28.78 C 52.53 22.27 76.97 32.82 74.00 20.00
C 71.59 21.22 71.64 17.51 71.00 17.00
C 60.60 14.54 46.26 11.36 35.02 14.02 C 23.79 16.69 13.91 13.17 4.10 21.10 C -5.71 29.03 15.93 35.63 23.00 32.00
C 20.38 48.13 18.00 64.80 18.00 81.00 Z"/>
</g>
<g fill="#086BB2" fill-opacity="0.55" stroke="None">
<path d="
M 280.00 30.00 
C 279.05 25.75 280.82 20.45 281.00 17.00
C 280.89 15.70 280.19 14.78 280.00 14.00
C 279.90 18.68 279.53 25.15 280.00 30.00 Z"/>
</g>
<g fill="#005BAB" fill-opacity="0.17" stroke="None">
<path d="
M 74.00 20.00 
C 73.69 18.65 72.14 17.64 71.00 17.00
C 71.64 17.51 71.59 21.22 74.00 20.00 Z"/>
</g>
<g fill="#004886" fill-opacity="0.02" stroke="None">
<path d="
M 280.00 30.00 
C 280.35 26.34 281.38 21.45 281.00 17.00
C 280.82 20.45 279.05 25.75 280.00 30.00 Z"/>
</g>
<g fill="#0569BE" fill-opacity="0.82" stroke="None">
<path d="
M 188.00 27.00 
C 176.27 23.65 171.34 41.01 182.32 44.66 C 193.30 48.31 198.63 30.03 188.00 27.00 Z"/>
</g>
<g fill="#066DC2" fill-opacity="0.57" stroke="None">
<path d="
M 262.00 27.00 
C 257.71 28.75 262.86 32.71 262.00 27.00 Z"/>
</g>
<g fill="#036AC2" fill-opacity="0.88" stroke="None">
<path d="
M 77.00 92.00 
C 77.08 91.79 76.46 87.91 79.00 88.00
C 80.13 90.09 81.49 95.84 78.00 96.00
C 80.42 111.73 93.72 110.54 104.00 102.00
C 104.33 101.58 106.19 97.14 108.00 96.00
C 109.28 96.22 109.42 98.81 108.00 99.00
C 112.33 110.34 123.71 104.71 126.08 96.08 C 128.44 87.44 133.81 81.31 138.00 74.00
C 140.34 83.78 132.93 97.48 142.26 103.74 C 151.58 110.01 159.06 99.54 165.00 94.00
C 164.27 95.04 168.73 88.66 167.00 93.00
C 169.34 95.55 166.82 102.28 172.26 103.74 C 177.70 105.21 180.39 106.01 182.00 100.00
C 182.10 98.67 181.54 96.36 181.00 94.00 C 180.46 91.64 183.21 90.35 183.00 91.00
C 183.56 83.00 184.59 69.21 187.22 62.22 C 189.86 55.23 183.47 39.01 173.77 50.77 C 164.07 62.53 169.46 85.95 153.00 94.00
C 152.60 94.20 152.00 94.00 152.00 94.00
C 150.53 92.86 150.54 90.14 152.00 89.00
C 152.05 88.85 153.00 89.00 153.00 89.00
C 151.64 79.52 156.52 66.37 148.70 59.30 C 140.88 52.24 132.15 62.25 129.00 69.00
C 126.85 63.30 133.98 53.77 124.00 51.00 C 114.02 48.23 112.30 57.86 111.00 65.00 C 109.70 72.14 110.62 81.34 105.77 86.77 C 100.92 92.20 98.71 97.61 92.00 100.00
C 92.99 86.38 95.71 78.85 98.07 65.07 C 100.43 51.29 81.61 56.20 79.31 67.31 C 77.00 78.41 69.65 84.27 65.00 94.00
C 59.21 81.77 76.64 64.99 71.00 53.00
C 71.65 54.11 66.03 48.56 68.00 50.00
C 57.59 43.78 50.82 58.54 51.00 68.00 C 51.18 77.46 46.08 91.46 53.75 100.25 C 61.42 109.03 73.78 101.09 77.00 92.00
M 129.00 70.00 
C 127.89 75.87 123.42 69.42 129.00 70.00
M 126.00 73.00 
C 128.35 77.66 122.73 76.53 126.00 73.00 Z"/>
</g>
<g fill="#00468E" fill-opacity="0.14" stroke="None">
<path d="
M 216.00 52.00 
C 216.08 51.81 217.92 51.81 218.00 52.00
C 217.72 50.75 218.60 48.53 217.00 48.00
C 215.58 49.15 216.05 51.39 216.00 52.00 Z"/>
</g>
<g fill="#065290" fill-opacity="0.25" stroke="None">
<path d="
M 71.00 53.00 
C 70.35 51.62 69.32 50.79 68.00 50.00
C 66.03 48.56 71.65 54.11 71.00 53.00 Z"/>
</g>
<g fill="#0469BF" fill-opacity="0.86" stroke="None">
<path d="
M 418.00 102.00 
C 417.77 102.28 420.44 99.58 420.00 100.00
C 427.94 96.50 428.84 75.65 421.30 83.30 C 413.76 90.96 413.28 96.75 403.00 100.00
C 397.09 91.74 401.55 83.18 409.97 83.97 C 418.40 84.77 419.32 74.96 422.07 70.07 C 424.83 65.19 422.87 54.35 416.69 51.31 C 410.51 48.27 402.19 50.39 397.25 55.25 C 392.30 60.11 389.76 65.22 387.78 71.78 C 385.80 78.33 385.22 88.26 387.01 94.99 C 388.80 101.72 391.80 106.74 399.00 109.00 C 406.20 111.26 413.20 106.22 418.00 102.00
M 404.00 75.00 
C 401.07 78.34 405.00 71.15 404.00 73.00
C 405.52 68.63 407.95 61.63 413.00 60.00
C 413.77 66.12 410.45 73.82 404.00 75.00 Z"/>
</g>
<g fill="#0763AC" fill-opacity="0.42" stroke="None">
<path d="
M 257.00 65.00 
C 257.16 64.45 259.96 63.26 258.99 61.01 C 258.03 58.75 258.17 58.85 258.00 57.00
C 257.80 59.04 257.00 62.23 257.00 65.00 Z"/>
</g>
<g fill="#000000" fill-opacity="0.00" stroke="None">
<path d="
M 404.00 73.00 
C 403.84 73.45 403.84 74.94 404.00 75.00
C 410.45 73.82 413.77 66.12 413.00 60.00
C 407.95 61.63 405.52 68.63 404.00 73.00 Z"/>
</g>
<g fill="#0561B0" fill-opacity="0.47" stroke="None">
<path d="
M 237.00 62.00 
C 236.52 62.53 234.51 62.37 235.00 62.00
C 232.81 63.70 234.56 67.48 234.00 70.00
C 236.45 68.06 236.34 65.08 237.00 62.00 Z"/>
</g>
<g fill="#000000" fill-opacity="0.00" stroke="None">
<path d="
M 360.00 65.00 
C 359.27 65.58 357.58 67.33 357.00 68.00
C 353.37 75.84 346.95 84.78 348.00 93.00
C 354.72 83.81 360.46 73.92 363.00 63.00
C 361.76 63.10 360.84 64.60 360.00 65.00 Z"/>
</g>
<g fill="#015B88" fill-opacity="0.28" stroke="None">
<path d="
M 357.00 68.00 
C 357.58 67.33 359.27 65.58 360.00 65.00
C 357.64 66.12 357.47 67.23 357.00 68.00 Z"/>
</g>
<g fill="#004299" fill-opacity="0.22" stroke="None">
<path d="
M 310.00 69.00 
C 310.43 69.52 311.58 69.60 312.00 70.00
C 311.07 67.99 311.22 67.05 310.00 69.00 Z"/>
</g>
<g fill="#000D80" fill-opacity="0.01" stroke="None">
<path d="
M 256.00 74.00 
C 256.17 72.79 256.97 70.89 257.00 69.00
C 256.84 70.18 256.07 72.16 256.00 74.00 Z"/>
</g>
<g fill="#000000" fill-opacity="0.00" stroke="None">
<path d="
M 304.00 87.00 
C 303.87 88.59 302.98 92.18 303.00 93.00
C 302.47 94.93 304.05 96.24 304.00 98.00
C 311.19 94.57 318.61 76.28 312.00 70.00
C 311.58 69.60 310.43 69.52 310.00 69.00
C 306.56 74.50 304.52 80.57 304.00 87.00 Z"/>
</g>
<g fill="#014B95" fill-opacity="0.20" stroke="None">
<path d="
M 129.00 70.00 
C 123.42 69.42 127.89 75.87 129.00 70.00 Z"/>
</g>
<g fill="#0B67BB" fill-opacity="0.61" stroke="None">
<path d="
M 404.00 75.00 
C 403.84 74.94 403.84 73.45 404.00 73.00
C 405.00 71.15 401.07 78.34 404.00 75.00 Z"/>
</g>
<g fill="#0570CC" fill-opacity="0.63" stroke="None">
<path d="
M 126.00 73.00 
C 122.73 76.53 128.35 77.66 126.00 73.00 Z"/>
</g>
<g fill="#0A73B2" fill-opacity="0.43" stroke="None">
<path d="
M 323.00 79.00 
C 323.01 78.98 324.84 78.08 325.00 78.00
C 325.40 75.89 328.53 77.98 329.00 76.00
C 324.19 75.07 323.52 76.54 323.00 79.00 Z"/>
</g>
<g fill="#075FAF" fill-opacity="0.57" stroke="None">
<path d="
M 18.00 96.00 
C 18.25 94.68 20.31 91.33 20.00 88.00 C 19.69 84.67 18.28 82.33 18.00 81.00
C 18.00 86.00 17.90 91.00 18.00 96.00 Z"/>
</g>
<g fill="#0054AF" fill-opacity="0.25" stroke="None">
<path d="
M 303.00 93.00 
C 302.98 92.18 303.87 88.59 304.00 87.00
C 303.22 89.77 302.16 89.56 303.00 93.00 Z"/>
</g>
<g fill="#0764B2" fill-opacity="0.59" stroke="None">
<path d="
M 77.00 92.00 
C 77.18 92.90 77.78 94.59 78.00 96.00
C 81.49 95.84 80.13 90.09 79.00 88.00
C 76.46 87.91 77.08 91.79 77.00 92.00 Z"/>
</g>
<g fill="#1271C3" fill-opacity="0.60" stroke="None">
<path d="
M 152.00 94.00 
C 151.69 93.10 151.69 89.90 152.00 89.00
C 150.54 90.14 150.53 92.86 152.00 94.00 Z"/>
</g>
<g fill="#003A74" fill-opacity="0.03" stroke="None">
<path d="
M 152.00 94.00 
C 152.00 94.00 152.60 94.20 153.00 94.00
C 153.45 92.69 153.00 90.39 153.00 89.00
C 153.00 89.00 152.05 88.85 152.00 89.00
C 151.69 89.90 151.69 93.10 152.00 94.00 Z"/>
</g>
<g fill="#005B97" fill-opacity="0.33" stroke="None">
<path d="
M 182.00 100.00 
C 182.76 97.15 182.77 94.24 183.00 91.00
C 183.21 90.35 180.46 91.64 181.00 94.00 C 181.54 96.36 182.10 98.67 182.00 100.00 Z"/>
</g>
<g fill="#0042B1" fill-opacity="0.16" stroke="None">
<path d="
M 165.00 94.00 
C 165.31 93.71 166.81 93.48 167.00 93.00
C 168.73 88.66 164.27 95.04 165.00 94.00 Z"/>
</g>
<g fill="#0658A1" fill-opacity="0.37" stroke="None">
<path d="
M 104.00 102.00 
C 105.04 101.14 107.19 100.13 108.00 99.00
C 109.42 98.81 109.28 96.22 108.00 96.00
C 106.19 97.14 104.33 101.58 104.00 102.00 Z"/>
</g>
<g fill="#0052B4" fill-opacity="0.31" stroke="None">
<path d="
M 418.00 102.00 
C 418.79 101.30 419.29 100.87 420.00 100.00
C 420.44 99.58 417.77 102.28 418.00 102.00 Z"/>
</g>
<g fill="#004896" fill-opacity="0.15" stroke="None">
<path d="
M 263.00 113.00 
L 268.00 113.00
C 267.41 111.63 264.31 111.58 263.00 112.00
C 263.00 112.00 263.00 112.50 263.00 113.00 Z"/>
</g>
</svg>